<?xml version="1.0" encoding="UTF-8"?>
<svg width="16px" height="16px" viewBox="0 0 16 16" version="1.1" xmlns="http://www.w3.org/2000/svg" xmlns:xlink="http://www.w3.org/1999/xlink">
    <!-- Generator: Sketch 41.1 (35376) - http://www.bohemiancoding.com/sketch -->
    <title>Fill 1</title>
    <desc>Created with Sketch.</desc>
    <defs></defs>
    <g id="icon" stroke="none" stroke-width="1" fill="none" fill-rule="evenodd">
        <g transform="translate(-380.000000, -250.000000)" id="Fill-1" fill="#D8D8D8">
            <path d="M382.765326,264.788901 C381.743989,264.788901 381,264.105974 381,263.164614 L381,262.866032 C381,262.052717 381.573521,261.27464 382.396247,260.974978 L384.905584,259.85957 C385.231162,259.753768 385.54377,259.618628 385.616654,259.552815 C385.592,259.552815 385.597831,259.348258 385.539088,259.235455 C385.517923,259.194296 385.465033,259.1179 385.395707,259.014508 C384.954984,258.339845 384.034697,256.936505 384.034697,255.615484 C384.034697,253.07091 385.756545,251 387.873297,251 C389.992367,251 391.716557,253.07091 391.716557,255.615484 C391.716557,256.830795 390.899753,258.061326 390.413188,258.797073 C390.276809,259.000436 390.164006,259.15674 390.125188,259.253131 C390.04062,259.54338 390.062956,259.655036 390.062956,259.656275 C390.09227,259.612798 390.373199,259.786663 390.572981,259.865492 L393.391415,260.964396 C394.203558,261.255816 394.78066,262.039793 394.78066,262.867179 L394.78066,263.165785 C394.78066,264.105974 394.036671,264.788901 393.015334,264.788901 L382.765326,264.788901 Z"></path>
        </g>
    </g>
</svg>