<?xml version="1.0" encoding="UTF-8" standalone="no"?>
<svg width="40px" height="40px" viewBox="0 0 40 40" version="1.1" xmlns="http://www.w3.org/2000/svg" xmlns:xlink="http://www.w3.org/1999/xlink">
    <!-- Generator: Sketch 40.2 (33826) - http://www.bohemiancoding.com/sketch -->
    <title>icon_cepingjieguo</title>
    <desc>Created with Sketch.</desc>
    <defs></defs>
    <g id="icon" stroke="none" stroke-width="1" fill="none" fill-rule="evenodd">
        <g transform="translate(-145.000000, -89.000000)" id="Page-1">
            <g transform="translate(151.000000, 96.000000)">
                <g id="设计模式库02">
                    <g id="Group-24">
                        <g id="职业测评">
                            <g id="Group-16">
                                <path d="M28.1,9.5 L15.5,26 C15.2,26.4 14.8,26.6 14.2,26.6 C13.7,26.6 13.2,26.4 12.9,26 L0.3,9.4 C-3.85802501e-15,9 -3.85802501e-15,8.5 0.2,8.1 L5.9,1.2 C6.2,0.8 6.7,0.5 7.2,0.5 L20.7,0.5 C21.2,0.5 21.7,0.7 22,1.1 L27.9,8" id="iconfont-shapecopy4" fill="#FFB813"></path>
                                <polyline id="Path-2" stroke="#FFFFFF" points="7.2 1.6 10.2 3.6 17.2 3.6 21.2 1.6"></polyline>
                                <polyline id="Path-3" stroke="#FFFFFF" points="17.2 3.6 20.2 13.6 14.2 26.6 8.2 13.6 10.2 3.6"></polyline>
                                <polyline id="Line" stroke="#FFFFFF" points="1.2 8.6 8.4 13.6 20.6 13.3 27.2 8.6"></polyline>
                            </g>
                        </g>
                    </g>
                </g>
            </g>
        </g>
    </g>
</svg>