<?xml version="1.0" encoding="UTF-8" standalone="no"?>
<svg width="40px" height="40px" viewBox="0 0 40 40" version="1.1" xmlns="http://www.w3.org/2000/svg" xmlns:xlink="http://www.w3.org/1999/xlink">
    <!-- Generator: Sketch 40.2 (33826) - http://www.bohemiancoding.com/sketch -->
    <title>icon_quweimofang</title>
    <desc>Created with Sketch.</desc>
    <defs></defs>
    <g id="icon" stroke="none" stroke-width="1" fill="none" fill-rule="evenodd">
        <g transform="translate(-320.000000, -90.000000)" id="XMLID_597_">
            <g transform="translate(328.000000, 96.000000)">
                <path d="M6.9,6.2 C6.9,6.1 6.9,3.9 7.4,3.2 C8,2.5 9.6,1.6 9.6,1.6 C9.6,1.6 11.4,0.5 11.8,0.7 C12.1,0.9 12.1,3.1 12.1,3.1 C12.1,3.1 12.1,5.3 11.7,5.9 C11.3,6.5 9.5,7.6 9.5,7.6 C9.5,7.6 7.9,8.6 7.4,8.6 C6.8,8.6 6.9,6.3 6.9,6.2 M8,17.4 C8,17.8 10,18.8 10,18.8 C10,18.8 11.9,19.9 12.6,19.9 C13.3,19.9 15.2,18.8 15.2,18.8 C15.2,18.8 16.9,17.9 17.1,17.4 C17.3,16.9 15.3,15.9 15.2,15.8 C15.1,15.8 13.2,14.7 12.3,14.8 C11.4,14.9 9.8,15.9 9.8,15.9 C9.8,15.9 8,17 8,17.4 M7.2,15.7 C7.7,15.7 9.3,14.7 9.3,14.7 C9.3,14.7 11.1,13.6 11.5,13 C11.9,12.4 11.9,10.2 11.9,10.2 C11.9,10.2 12,8 11.6,7.8 C11.3,7.6 9.4,8.7 9.4,8.7 C9.4,8.7 7.8,9.6 7.2,10.3 C6.7,11 6.7,13.2 6.7,13.3 C6.7,13.3 6.6,15.7 7.2,15.7 M19.5,9.7 C19.9,10.3 21.7,11.4 21.7,11.4 C21.7,11.4 23.3,12.4 23.8,12.4 C24.3,12.4 24.2,10 24.2,10 C24.2,9.9 24.2,7.7 23.7,7 C23.1,6.3 21.5,5.4 21.5,5.4 C21.5,5.4 19.7,4.3 19.3,4.5 C19,4.7 19,6.9 19,6.9 C19,6.9 19.2,9 19.5,9.7 M17.7,10.3 C17.1,9.6 15.5,8.7 15.5,8.7 C15.5,8.7 13.7,7.6 13.3,7.8 C13,8 13,10.2 13,10.2 C13,10.2 13,12.4 13.4,13 C13.8,13.6 15.6,14.7 15.6,14.7 C15.6,14.7 17.2,15.7 17.7,15.7 C18.2,15.7 18.1,13.3 18.1,13.3 C18.2,13.2 18.3,11 17.7,10.3 M13.4,5.9 C13.7,6.5 15.6,7.6 15.6,7.6 C15.6,7.6 17.2,8.6 17.7,8.6 C18.2,8.6 18.1,6.2 18.1,6.2 C18.1,6.1 18.1,3.9 17.6,3.2 C17,2.5 15.4,1.6 15.4,1.6 C15.4,1.6 13.6,0.5 13.2,0.7 C12.9,0.9 12.9,3.1 12.9,3.1 C12.9,3.1 13,5.3 13.4,5.9 M5.4,16.7 C5.8,16.1 5.8,13.9 5.8,13.9 C5.8,13.9 5.9,11.7 5.5,11.5 C5.2,11.3 3.3,12.4 3.3,12.4 C3.3,12.4 1.7,13.3 1.1,14 C0.5,14.7 0.6,16.9 0.6,17 C0.6,17.1 0.5,19.4 1,19.4 C1.6,19.4 3.1,18.4 3.1,18.4 C3.1,18.4 5,17.3 5.4,16.7 M21.4,19.2 C21.3,19.2 19.4,18.1 18.5,18.2 C17.6,18.3 16,19.3 16,19.3 C16,19.3 14.1,20.3 14.1,20.7 C14.1,21.1 16.1,22.1 16.1,22.1 C16.1,22.1 18,23.1 18.7,23.1 C19.4,23.1 21.3,22 21.3,22 C21.3,22 23,21.1 23.2,20.6 C23.5,20.3 21.4,19.2 21.4,19.2 M1.2,12.4 C1.7,12.4 3.3,11.4 3.3,11.4 C3.3,11.4 5.1,10.3 5.5,9.7 C5.9,9.1 5.9,6.9 5.9,6.9 C5.9,6.9 6,4.7 5.6,4.5 C5.3,4.3 3.4,5.4 3.4,5.4 C3.4,5.4 1.8,6.3 1.2,7 C0.6,7.7 0.7,9.9 0.7,10 C0.7,10 0.6,12.4 1.2,12.4 M24.4,17 C24.4,16.9 24.4,14.7 23.9,14 C23.3,13.3 21.7,12.4 21.7,12.4 C21.7,12.4 19.9,11.3 19.5,11.5 C19.2,11.7 19.2,13.9 19.2,13.9 C19.2,13.9 19.2,16.1 19.6,16.7 C20,17.3 21.8,18.4 21.8,18.4 C21.8,18.4 23.4,19.4 24,19.4 C24.5,19.4 24.4,17.1 24.4,17 M10.8,20.9 C11,20.4 9,19.4 8.9,19.3 C8.8,19.3 6.9,18.2 6,18.3 C5.1,18.4 3.5,19.4 3.5,19.4 C3.5,19.4 1.6,20.4 1.6,20.8 C1.6,21.2 3.6,22.2 3.6,22.2 C3.6,22.2 5.5,23.3 6.2,23.3 C6.9,23.3 8.8,22.2 8.8,22.2 C8.8,22.2 10.6,21.4 10.8,20.9 M15.1,22.7 C15,22.7 13.1,21.6 12.2,21.7 C11.3,21.8 9.7,22.8 9.7,22.8 C9.7,22.8 7.8,23.8 7.8,24.2 C7.8,24.6 9.8,25.6 9.8,25.6 C9.8,25.6 11.7,26.6 12.4,26.6 C13.1,26.6 15,25.5 15,25.5 C15,25.5 16.7,24.6 16.9,24.1 C17.2,23.8 15.2,22.7 15.1,22.7" id="XMLID_629_" fill="#FFB64D"></path>
                <path d="M6.9,6.2 C6.9,6.1 6.9,3.9 7.4,3.2 C8,2.5 9.6,1.6 9.6,1.6 C9.6,1.6 11.4,0.5 11.8,0.7 C12.1,0.9 12.1,3.1 12.1,3.1 C12.1,3.1 12.1,5.3 11.7,5.9 C11.3,6.5 9.5,7.6 9.5,7.6 C9.5,7.6 7.9,8.6 7.4,8.6 C6.8,8.6 6.9,6.3 6.9,6.2 M8,17.4 C8,17.8 10,18.8 10,18.8 C10,18.8 11.9,19.9 12.6,19.9 C13.3,19.9 15.2,18.8 15.2,18.8 C15.2,18.8 16.9,17.9 17.1,17.4 C17.3,16.9 15.3,15.9 15.2,15.8 C15.1,15.8 13.2,14.7 12.3,14.8 C11.4,14.9 9.8,15.9 9.8,15.9 C9.8,15.9 8,17 8,17.4 M7.2,15.7 C7.7,15.7 9.3,14.7 9.3,14.7 C9.3,14.7 11.1,13.6 11.5,13 C11.9,12.4 11.9,10.2 11.9,10.2 C11.9,10.2 12,8 11.6,7.8 C11.3,7.6 9.4,8.7 9.4,8.7 C9.4,8.7 7.8,9.6 7.2,10.3 C6.7,11 6.7,13.2 6.7,13.3 C6.7,13.3 6.6,15.7 7.2,15.7 M5.4,16.7 C5.8,16.1 5.8,13.9 5.8,13.9 C5.8,13.9 5.9,11.7 5.5,11.5 C5.2,11.3 3.3,12.4 3.3,12.4 C3.3,12.4 1.7,13.3 1.1,14 C0.5,14.7 0.6,16.9 0.6,17 C0.6,17.1 0.5,19.4 1,19.4 C1.6,19.4 3.1,18.4 3.1,18.4 C3.1,18.4 5,17.3 5.4,16.7 M21.4,19.2 C21.3,19.2 19.4,18.1 18.5,18.2 C17.6,18.3 16,19.3 16,19.3 C16,19.3 14.1,20.3 14.1,20.7 C14.1,21.1 16.1,22.1 16.1,22.1 C16.1,22.1 18,23.1 18.7,23.1 C19.4,23.1 21.3,22 21.3,22 C21.3,22 23,21.1 23.2,20.6 C23.5,20.3 21.4,19.2 21.4,19.2 M1.2,12.4 C1.7,12.4 3.3,11.4 3.3,11.4 C3.3,11.4 5.1,10.3 5.5,9.7 C5.9,9.1 5.9,6.9 5.9,6.9 C5.9,6.9 6,4.7 5.6,4.5 C5.3,4.3 3.4,5.4 3.4,5.4 C3.4,5.4 1.8,6.3 1.2,7 C0.6,7.7 0.7,9.9 0.7,10 C0.7,10 0.6,12.4 1.2,12.4 M10.8,20.9 C11,20.4 9,19.4 8.9,19.3 C8.8,19.3 6.9,18.2 6,18.3 C5.1,18.4 3.5,19.4 3.5,19.4 C3.5,19.4 1.6,20.4 1.6,20.8 C1.6,21.2 3.6,22.2 3.6,22.2 C3.6,22.2 5.5,23.3 6.2,23.3 C6.9,23.3 8.8,22.2 8.8,22.2 C8.8,22.2 10.6,21.4 10.8,20.9 M15.1,22.7 C15,22.7 13.1,21.6 12.2,21.7 C11.3,21.8 9.7,22.8 9.7,22.8 C9.7,22.8 7.8,23.8 7.8,24.2 C7.8,24.6 9.8,25.6 9.8,25.6 C9.8,25.6 11.7,26.6 12.4,26.6 C13.1,26.6 15,25.5 15,25.5 C15,25.5 16.7,24.6 16.9,24.1 C17.2,23.8 15.2,22.7 15.1,22.7" id="XMLID_608_" fill="#FFDDB0"></path>
                <path d="M6.9,6.2 C6.9,6.1 6.9,3.9 7.4,3.2 C8,2.5 9.6,1.6 9.6,1.6 C9.6,1.6 11.4,0.5 11.8,0.7 C12.1,0.9 12.1,3.1 12.1,3.1 C12.1,3.1 12.1,5.3 11.7,5.9 C11.3,6.5 9.5,7.6 9.5,7.6 C9.5,7.6 7.9,8.6 7.4,8.6 C6.8,8.6 6.9,6.3 6.9,6.2 M7.2,15.7 C7.7,15.7 9.3,14.7 9.3,14.7 C9.3,14.7 11.1,13.6 11.5,13 C11.9,12.4 11.9,10.2 11.9,10.2 C11.9,10.2 12,8 11.6,7.8 C11.3,7.6 9.4,8.7 9.4,8.7 C9.4,8.7 7.8,9.6 7.2,10.3 C6.6,11 6.7,13.2 6.7,13.3 C6.7,13.3 6.6,15.7 7.2,15.7 M5.4,16.7 C5.8,16.1 5.8,13.9 5.8,13.9 C5.8,13.9 5.9,11.7 5.5,11.5 C5.2,11.3 3.3,12.4 3.3,12.4 C3.3,12.4 1.7,13.3 1.1,14 C0.5,14.7 0.6,16.9 0.6,17 C0.6,17.1 0.5,19.4 1,19.4 C1.6,19.4 3.1,18.4 3.1,18.4 C3.1,18.4 5,17.3 5.4,16.7 M1.2,12.4 C1.7,12.4 3.3,11.4 3.3,11.4 C3.3,11.4 5.1,10.3 5.5,9.7 C5.9,9.1 5.9,6.9 5.9,6.9 C5.9,6.9 6,4.7 5.6,4.5 C5.3,4.3 3.4,5.4 3.4,5.4 C3.4,5.4 1.8,6.3 1.2,7 C0.6,7.7 0.7,9.9 0.7,10 C0.7,10 0.6,12.4 1.2,12.4" id="XMLID_601_" fill="#FFC988"></path>
            </g>
        </g>
    </g>
</svg>