<?xml version="1.0" encoding="UTF-8" standalone="no"?>
<svg width="40px" height="40px" viewBox="0 0 40 40" version="1.1" xmlns="http://www.w3.org/2000/svg" xmlns:xlink="http://www.w3.org/1999/xlink">
    <!-- Generator: Sketch 40.2 (33826) - http://www.bohemiancoding.com/sketch -->
    <title>icon_huiyifenxi</title>
    <desc>Created with Sketch.</desc>
    <defs>
        <linearGradient x1="50%" y1="0%" x2="50%" y2="100%" id="linearGradient-1">
            <stop stop-color="#F79885" offset="0%"></stop>
            <stop stop-color="#FA8E7F" offset="100%"></stop>
        </linearGradient>
    </defs>
    <g id="icon" stroke="none" stroke-width="1" fill="none" fill-rule="evenodd">
        <g transform="translate(-410.000000, -90.000000)">
            <rect id="Rectangle-5" fill-opacity="0.45" fill="#FFCCC2" x="419" y="105" width="23.3103448" height="17.0344828"></rect>
            <g id="Group-14" transform="translate(417.000000, 96.000000)">
                <path d="M18.1276669,5.46915072 C18.6837523,5.46915072 19.1361426,5.0162555 19.1361426,4.45954951 L19.1361426,1.01502775 C19.1361426,0.458321761 18.6837522,0.00542654241 18.1276669,0.00542654241 C17.5715816,0.00542654241 17.1191912,0.458321761 17.1191912,1.01502775 L17.1191912,4.45954951 C17.1191912,5.0162555 17.5715815,5.46915072 18.1276669,5.46915072 L18.1276669,5.46915072 Z M7.86494386,5.46915072 C8.42102922,5.46915072 8.87341954,5.0162555 8.87341954,4.45954951 L8.87341954,1.01502775 C8.87341954,0.458321761 8.42102922,0.00542654241 7.86494386,0.00542654241 C7.30885849,0.00542654241 6.85646817,0.458321761 6.85646817,1.01502775 L6.85646817,4.45954951 C6.85646817,5.0162555 7.30885849,5.46915072 7.86494386,5.46915072 L7.86494386,5.46915072 Z" id="Shape" fill="#F98D7D"></path>
                <path d="M23.4655286,2.11371141 L20.025974,2.11371141 L20.025974,4.45954951 C20.025974,5.50745618 19.174435,6.35997532 18.1276669,6.35997532 C17.0809581,6.35997532 16.2293597,5.50745618 16.2293597,4.45954951 L16.2293597,2.11371141 L9.76325101,2.11371141 L9.76325101,4.45954951 C9.76325101,5.50745618 8.91171194,6.35997532 7.86494386,6.35997532 C6.8182351,6.35997532 5.9666367,5.50745618 5.9666367,4.45954951 L5.9666367,2.11371141 L2.5271711,2.11371141 C1.13405093,2.11371141 0.00476582609,3.2442569 0.00476582609,4.63890218 L0.00476582609,23.4626494 C0.00476582609,24.857265 1.13405096,25.9878105 2.5271711,25.9878105 L23.4655286,25.9878105 C24.8585598,25.9878105 25.9878449,24.857265 25.9878449,23.4626494 L25.9878449,4.63890218 C25.9878449,3.2442569 24.8585301,2.11371141 23.4655286,2.11371141 L23.4655286,2.11371141 Z M6.58951875,23.5454664 L2.25900557,23.5454664 L2.25900557,19.8485443 L6.58951875,19.8485443 L6.58951875,23.5454664 L6.58951875,23.5454664 Z M6.58951875,18.6607782 L2.25900557,18.6607782 L2.25900557,15.6616687 L6.58951875,15.6616687 L6.58951875,18.6607782 L6.58951875,18.6607782 Z M6.58951875,14.4739026 L2.25900557,14.4739026 L2.25900557,10.7769806 L6.58951875,10.7769806 L6.58951875,14.4739026 L6.58951875,14.4739026 Z M12.4030844,23.5454664 L7.77596072,23.5454664 L7.77596072,19.8485443 L12.4030844,19.8485443 L12.4030844,23.5454664 L12.4030844,23.5454664 Z M12.4030844,18.6607782 L7.77596072,18.6607782 L7.77596072,15.6616687 L12.4030844,15.6616687 L12.4030844,18.6607782 L12.4030844,18.6607782 Z M12.4030844,14.4739026 L7.77596072,14.4739026 L7.77596072,10.7769806 L12.4030844,10.7769806 L12.4030844,14.4739026 L12.4030844,14.4739026 Z M18.21665,23.5454664 L13.5895263,23.5454664 L13.5895263,19.8485443 L18.21665,19.8485443 L18.21665,23.5454664 L18.21665,23.5454664 Z M18.21665,18.6607782 L13.5895263,18.6607782 L13.5895263,15.6616687 L18.21665,15.6616687 L18.21665,18.6607782 L18.21665,18.6607782 Z M18.21665,14.4739026 L13.5895263,14.4739026 L13.5895263,10.7769806 L18.21665,10.7769806 L18.21665,14.4739026 L18.21665,14.4739026 Z M23.7336052,23.5454664 L19.403092,23.5454664 L19.403092,19.8485443 L23.7336052,19.8485443 L23.7336052,23.5454664 L23.7336052,23.5454664 Z M23.7336052,18.6607782 L19.403092,18.6607782 L19.403092,15.6616687 L23.7336052,15.6616687 L23.7336052,18.6607782 L23.7336052,18.6607782 Z M23.7336052,14.4739026 L19.403092,14.4739026 L19.403092,10.7769806 L23.7336052,10.7769806 L23.7336052,14.4739026 L23.7336052,14.4739026 Z" id="Shape" fill="url(#linearGradient-1)"></path>
            </g>
        </g>
    </g>
</svg>