<?xml version="1.0" encoding="UTF-8" standalone="no"?>
<svg width="140px" height="139px" viewBox="0 0 140 139" version="1.1" xmlns="http://www.w3.org/2000/svg" xmlns:xlink="http://www.w3.org/1999/xlink">
    <!-- Generator: Sketch 41 (35326) - http://www.bohemiancoding.com/sketch -->
    <title>icon_budakapeitu copy</title>
    <desc>Created with Sketch.</desc>
    <defs></defs>
    <g id="资产" stroke="none" stroke-width="1" fill="none" fill-rule="evenodd">
        <g id="3.0.1个人报表－领用资产无记录" transform="translate(-420.000000, -247.000000)">
            <g id="Group-6">
                <g id="补打卡-copy" transform="translate(415.000000, 247.000000)">
                    <rect id="Rectangle-9" x="5" y="0" width="139.068748" height="138.738739"></rect>
                    <g id="Group-2" transform="translate(27.034374, 10.369369)">
                        <g id="Group" transform="translate(0.702703, 0.045045)">
                            <rect id="Rectangle-3" stroke="#B0BDC9" stroke-width="0.5" fill="#FFFFFF" x="0" y="13.8738739" width="81.981982" height="94.5945946" rx="4"></rect>
                            <path d="M37.2515138,7.56756757 L26.6983293,7.56756757 C24.5022452,7.56756757 22.7027027,9.35892192 22.7027027,11.5686695 L22.7027027,16.3963964 L60.5405405,16.3963964 L60.5405405,11.5686695 C60.5405405,9.35421282 58.7516376,7.56756757 56.544914,7.56756757 L45.9917295,7.56756757 C46.4209874,6.82550862 46.6666667,5.96396757 46.6666667,5.04504505 C46.6666667,2.2587436 44.4079231,0 41.6216216,0 C38.8353202,0 36.5765766,2.2587436 36.5765766,5.04504505 C36.5765766,5.96396757 36.8222559,6.82550862 37.2515138,7.56756757 Z M41.6216216,7.56756757 C43.0147723,7.56756757 44.1441441,6.43819577 44.1441441,5.04504505 C44.1441441,3.65189432 43.0147723,2.52252252 41.6216216,2.52252252 C40.2284709,2.52252252 39.0990991,3.65189432 39.0990991,5.04504505 C39.0990991,6.43819577 40.2284709,7.56756757 41.6216216,7.56756757 Z" id="Combined-Shape" stroke="#B0BDC9" stroke-width="0.5" fill="#EFF9FF"></path>
                            <ellipse id="Oval-2" stroke="#B0BDCA" stroke-width="0.5" fill="#FFFFFF" cx="15.1351351" cy="30.2702703" rx="5.04504505" ry="5.04504505"></ellipse>
                            <path d="M29.6396396,29.6396396 L37.2072072,29.6396396" id="Line" stroke="#EEEEEE" stroke-linecap="round" stroke-linejoin="round"></path>
                            <path d="M29.6396396,33.4234234 L61.1711712,33.4234234" id="Line" stroke="#EEEEEE" stroke-linecap="round" stroke-linejoin="round"></path>
                            <path d="M30.2702703,46.6666667 L37.8378378,46.6666667" id="Line" stroke="#EEEEEE" stroke-linecap="round" stroke-linejoin="round"></path>
                            <path d="M30.2702703,50.4504505 L61.8018018,50.4504505" id="Line" stroke="#EEEEEE" stroke-linecap="round" stroke-linejoin="round"></path>
                            <path d="M30.2702703,65.5855856 L37.8378378,65.5855856" id="Line" stroke="#EEEEEE" stroke-linecap="round" stroke-linejoin="round"></path>
                            <path d="M30.2702703,69.3693694 L47.9279279,69.3693694" id="Line" stroke="#EEEEEE" stroke-linecap="round" stroke-linejoin="round"></path>
                            <path d="M30.2702703,83.2432432 L37.8378378,83.2432432" id="Line" stroke="#EEEEEE" stroke-linecap="round" stroke-linejoin="round"></path>
                            <path d="M30.2702703,87.027027 L49.1891892,87.027027" id="Line" stroke="#EEEEEE" stroke-linecap="round" stroke-linejoin="round"></path>
                            <path d="M19.2597854,45.022079 C18.3464404,43.7280211 16.8394841,42.8828829 15.1351351,42.8828829 C12.3488337,42.8828829 10.0900901,45.1416265 10.0900901,47.9279279 C10.0900901,50.7142294 12.3488337,52.972973 15.1351351,52.972973 C16.8260491,52.972973 18.3226703,52.1411062 19.238076,50.8642951 C19.5112435,50.4832801 19.7326542,50.0626431 19.8920262,49.6126659" id="Oval-2" stroke="#B0BDCA" stroke-width="0.5" stroke-linecap="round" stroke-linejoin="round" fill="#FFFFFF"></path>
                            <path d="M19.2597854,62.6797367 C18.3464404,61.3856788 16.8394841,60.5405405 15.1351351,60.5405405 C12.3488337,60.5405405 10.0900901,62.7992841 10.0900901,65.5855856 C10.0900901,68.371887 12.3488337,70.6306306 15.1351351,70.6306306 C16.8260491,70.6306306 18.3226703,69.7987639 19.238076,68.5219528 C19.5112435,68.1409378 19.7326542,67.7203007 19.8920262,67.2703236" id="Oval-2" stroke="#B0BDCA" stroke-width="0.5" stroke-linecap="round" stroke-linejoin="round" fill="#FFFFFF"></path>
                            <polyline id="Line" stroke="#D1D1D1" stroke-width="0.5" stroke-linecap="round" stroke-linejoin="round" points="12.6126126 47.2972973 15.7657658 50.4504505 26.4864865 41.6216216"></polyline>
                            <polyline id="Line" stroke="#D1D1D1" stroke-width="0.5" stroke-linecap="round" stroke-linejoin="round" points="12.6126126 64.954955 15.7657658 68.1081081 26.4864865 59.2792793"></polyline>
                            <ellipse id="Oval-2" stroke="#B0BDCA" stroke-width="0.5" fill="#FFFFFF" cx="15.1351351" cy="83.2432432" rx="5.04504505" ry="5.04504505"></ellipse>
                        </g>
                        <g id="资产总览" transform="translate(41.063063, 93.207207)">
                            <path d="M0.44987859,5.43826541 C0.44987859,5.43826541 1.68926942,7.23388252 4.07046206,8.10797614 C6.4516547,8.98206976 10.1374665,8.98433101 12.2069213,8.98433101 C13.9381687,8.98433101 18.1867776,8.37293742 20.3507707,7.63839034 C22.5147637,6.90384327 23.963964,5.43826541 23.963964,5.43826541 L23.963964,19.6514728 C23.963964,19.6514728 22.2199066,21.3552197 19.5938908,22.1351967 C16.9678749,22.9151737 13.8299152,23.2089316 11.981982,23.2089316 C9.8750006,23.2089316 6.16257081,22.5868424 3.63228463,21.6151112 C1.10199845,20.64338 0.44987859,19.6514728 0.44987859,19.6514728 L0.44987859,5.43826541 Z" id="Rectangle-11" fill="#EFF9FF"></path>
                            <path d="M23.5201583,16.904498 L23.5201583,18.9976813 C23.5201583,20.7949333 18.9333862,22.7194602 12.1053005,22.7194602 C5.27730472,22.7194602 0.690532681,20.7949333 0.690532681,18.9976813 L0.690532681,16.9045403 C0.366612678,16.563335 0.152557913,16.2028775 0.0688639367,15.8262569 C0.0514314682,15.8644224 0.0190439357,15.8951411 0.0190439357,15.9393573 L0.0190439357,18.9976813 C0.0190439357,21.4382899 5.32811568,23.3501655 12.1053455,23.3501655 C18.8825753,23.3501655 24.191602,21.4383322 24.191602,18.9976813 L24.191602,15.9393573 C24.191602,15.8951834 24.1592145,15.8644647 24.141782,15.8262569 C24.058043,16.2029198 23.8440783,16.5632926 23.5201583,16.904498 Z" id="Shape" fill="#B0BDC9"></path>
                            <path d="M23.5205504,13.2074206 L23.5205504,15.4357085 C23.5205504,17.3491702 18.9337018,19.39795 12.1055021,19.39795 C5.27739246,19.39795 0.690543886,17.3491702 0.690543886,15.4357085 L0.690543886,13.2075108 C0.366618477,12.8442602 0.152560141,12.4604237 0.068864768,12.0594247 C0.0514320086,12.1000111 0.0190439357,12.1327595 0.0190439357,12.1797875 L0.0190439357,15.4357085 C0.0190439357,15.5677832 0.0419272966,15.6973353 0.068864768,15.8263019 C0.152560141,16.2272559 0.366618477,16.6110023 0.690543886,16.9742528 C2.31246825,18.7931181 6.74359296,20.0694499 12.1055021,20.0694499 C17.4675013,20.0694499 21.8987162,18.7931181 23.5205504,16.9741627 C23.8444758,16.6109122 24.0584891,16.2272559 24.1421845,15.8263019 C24.169122,15.6973353 24.1920053,15.5677832 24.1920053,15.4357085 L24.1920053,12.1797875 C24.1920053,12.1327595 24.1596173,12.099966 24.1421845,12.0594247 C24.0584441,12.4603787 23.8444758,12.8441701 23.5205504,13.2074206 Z" id="Shape" fill="#B0BDC9"></path>
                            <path d="M23.5205504,9.44054345 L23.5205504,11.6688313 C23.5205504,13.5824732 18.9337018,15.6312529 12.1055021,15.6312529 C5.27739246,15.6312529 0.690543886,13.5824732 0.690543886,11.6688313 L0.690543886,9.44063355 C0.366708586,9.07738305 0.15265025,8.69363661 0.068864768,8.29268265 C0.0514320086,8.33331409 0.0190439357,8.36610754 0.0190439357,8.41313553 L0.0190439357,11.6688313 C0.0190439357,11.800906 0.0419272966,11.9304581 0.068864768,12.0594247 C0.152560141,12.4604237 0.366618477,12.8442602 0.690543886,13.2075108 C2.31246825,15.0265111 6.74359296,16.3027979 12.1055021,16.3027979 C17.4675013,16.3027979 21.8987162,15.0264661 23.5205504,13.2074657 C23.8444758,12.8442152 24.0584891,12.4603787 24.1421845,12.0594698 C24.169122,11.9305032 24.1920053,11.8009511 24.1920053,11.6688764 L24.1920053,8.4131806 C24.1920053,8.36615262 24.1596173,8.33335917 24.1421845,8.29272773 C24.058399,8.6935465 23.8443858,9.07729294 23.5205504,9.44054345 Z" id="Shape" fill="#B0BDC9"></path>
                            <path id="Shape" fill="#000000"></path>
                            <path id="Shape" fill="#000000"></path>
                            <path d="M23.5205504,6.19484782 L23.5205504,7.90195407 C23.5205504,9.81555095 18.9337018,11.8644658 12.1055021,11.8644658 C5.27739246,11.8644658 0.690543886,9.81559598 0.690543886,7.90195407 L0.690543886,6.19493793 C0.262427213,5.71479318 0.0189989033,5.19892702 0.0189989033,4.65625849 L0.0189989033,7.90195411 C0.0189989033,8.0341189 0.0418822641,8.16367106 0.0688197356,8.29268265 C0.152605217,8.69363661 0.366663554,9.07738305 0.690498854,9.44063355 C2.31242321,11.2596339 6.74354793,12.5359207 12.1054571,12.5359207 C17.4674563,12.5359207 21.8986711,11.2595889 23.5205054,9.44058852 C23.8443858,9.07733802 24.058354,8.69359157 24.1421395,8.29272769 C24.169077,8.16371609 24.1919603,8.0341189 24.1919603,7.90199914 L24.1919603,4.65630352 C24.1920053,5.19888194 23.9486671,5.71470311 23.5205504,6.19484782 Z" id="Shape" fill="#B0BDC9"></path>
                            <path d="M12.1055021,0.0225170703 C5.34081715,0.0225170703 0.0408011767,2.05062073 0.0208458067,4.64184378 C0.0208458067,4.64675378 0.0189989033,4.6513485 0.0189989033,4.65625849 C0.0189989033,5.19892702 0.262427213,5.71479318 0.690543886,6.19493793 C2.31246825,8.01393833 6.74359296,9.29022511 12.1055021,9.29022511 C17.4675013,9.29022511 21.8987162,8.01389325 23.5205504,6.1948929 C23.9486671,5.71474814 24.1920053,5.19897205 24.1920053,4.65630352 C24.1920053,4.65139353 24.1901134,4.64679881 24.1901134,4.64188882 C24.1702031,2.0505757 18.870142,0.0225170703 12.1055021,0.0225170703 Z M23.5205504,4.65621346 C23.5205504,6.56981034 18.9337018,8.61872521 12.1055021,8.61872521 C5.27739246,8.61872521 0.690543886,6.56985537 0.690543886,4.65621346 C0.690543886,2.74284182 5.27739246,0.693971988 12.1055021,0.693971988 C18.9337018,0.693971944 23.5205504,2.74284182 23.5205504,4.65621346 Z" id="Shape" fill="#B0BDC9"></path>
                            <path id="Shape" fill="#000000"></path>
                            <path id="Shape" fill="#000000"></path>
                            <path id="Shape" fill="#000000"></path>
                            <path id="Shape" fill="#000000"></path>
                            <path d="M11.981982,8.59141857 C18.5994479,8.59141857 23.527942,6.62762616 23.527942,4.6447424 C23.527942,2.66185864 18.5994479,0.69806623 11.981982,0.69806623 C5.36451606,0.69806623 0.610307573,2.43568764 0.610307573,4.6447424 C0.610307573,6.85379716 5.36451606,8.59141857 11.981982,8.59141857 Z" id="Oval-3-Copy" fill="#EFF9FF"></path>
                        </g>
                        <g id="资产总览-copy" transform="translate(68.810811, 76.810811)">
                            <path d="M0.427400056,6.30630631 L23.963964,6.30630631 L23.963964,36.2643405 C23.963964,36.2643405 22.730708,37.7692628 20.7325978,38.5663887 C18.7344877,39.3635145 14.6818216,39.9009361 12.6126126,39.9009361 C10.6727779,39.9009361 7.16812378,39.5124941 4.52157235,38.5663887 C1.87502092,37.6202832 0.427400056,36.2643405 0.427400056,36.2643405 L0.427400056,6.30630631 Z" id="Rectangle-3" fill="#EFF9FF"></path>
                            <path d="M23.5201583,16.904498 L23.5201583,18.9976813 C23.5201583,20.7949333 18.9333862,22.7194602 12.1053005,22.7194602 C5.27730472,22.7194602 0.690532681,20.7949333 0.690532681,18.9976813 L0.690532681,16.9045403 C0.366612678,16.563335 0.152557913,16.2028775 0.0688639367,15.8262569 C0.0514314682,15.8644224 0.0190439357,15.8951411 0.0190439357,15.9393573 L0.0190439357,18.9976813 C0.0190439357,21.4382899 5.32811568,23.3501655 12.1053455,23.3501655 C18.8825753,23.3501655 24.191602,21.4383322 24.191602,18.9976813 L24.191602,15.9393573 C24.191602,15.8951834 24.1592145,15.8644647 24.141782,15.8262569 C24.058043,16.2029198 23.8440783,16.5632926 23.5201583,16.904498 Z" id="Shape" fill="#B0BDC9"></path>
                            <path d="M23.5205504,13.2074206 L23.5205504,15.4357085 C23.5205504,17.3491702 18.9337018,19.39795 12.1055021,19.39795 C5.27739246,19.39795 0.690543886,17.3491702 0.690543886,15.4357085 L0.690543886,13.2075108 C0.366618477,12.8442602 0.152560141,12.4604237 0.068864768,12.0594247 C0.0514320086,12.1000111 0.0190439357,12.1327595 0.0190439357,12.1797875 L0.0190439357,15.4357085 C0.0190439357,15.5677832 0.0419272966,15.6973353 0.068864768,15.8263019 C0.152560141,16.2272559 0.366618477,16.6110023 0.690543886,16.9742528 C2.31246825,18.7931181 6.74359296,20.0694499 12.1055021,20.0694499 C17.4675013,20.0694499 21.8987162,18.7931181 23.5205504,16.9741627 C23.8444758,16.6109122 24.0584891,16.2272559 24.1421845,15.8263019 C24.169122,15.6973353 24.1920053,15.5677832 24.1920053,15.4357085 L24.1920053,12.1797875 C24.1920053,12.1327595 24.1596173,12.099966 24.1421845,12.0594247 C24.0584441,12.4603787 23.8444758,12.8441701 23.5205504,13.2074206 Z" id="Shape" fill="#B0BDC9"></path>
                            <path d="M23.5205504,9.44054345 L23.5205504,11.6688313 C23.5205504,13.5824732 18.9337018,15.6312529 12.1055021,15.6312529 C5.27739246,15.6312529 0.690543886,13.5824732 0.690543886,11.6688313 L0.690543886,9.44063355 C0.366708586,9.07738305 0.15265025,8.69363661 0.068864768,8.29268265 C0.0514320086,8.33331409 0.0190439357,8.36610754 0.0190439357,8.41313553 L0.0190439357,11.6688313 C0.0190439357,11.800906 0.0419272966,11.9304581 0.068864768,12.0594247 C0.152560141,12.4604237 0.366618477,12.8442602 0.690543886,13.2075108 C2.31246825,15.0265111 6.74359296,16.3027979 12.1055021,16.3027979 C17.4675013,16.3027979 21.8987162,15.0264661 23.5205504,13.2074657 C23.8444758,12.8442152 24.0584891,12.4603787 24.1421845,12.0594698 C24.169122,11.9305032 24.1920053,11.8009511 24.1920053,11.6688764 L24.1920053,8.4131806 C24.1920053,8.36615262 24.1596173,8.33335917 24.1421845,8.29272773 C24.058399,8.6935465 23.8443858,9.07729294 23.5205504,9.44054345 Z" id="Shape" fill="#B0BDC9"></path>
                            <path id="Shape" fill="#000000"></path>
                            <path id="Shape" fill="#000000"></path>
                            <path d="M23.5205504,6.19484782 L23.5205504,7.90195407 C23.5205504,9.81555095 18.9337018,11.8644658 12.1055021,11.8644658 C5.27739246,11.8644658 0.690543886,9.81559598 0.690543886,7.90195407 L0.690543886,6.19493793 C0.262427213,5.71479318 0.0189989033,5.19892702 0.0189989033,4.65625849 L0.0189989033,7.90195411 C0.0189989033,8.0341189 0.0418822641,8.16367106 0.0688197356,8.29268265 C0.152605217,8.69363661 0.366663554,9.07738305 0.690498854,9.44063355 C2.31242321,11.2596339 6.74354793,12.5359207 12.1054571,12.5359207 C17.4674563,12.5359207 21.8986711,11.2595889 23.5205054,9.44058852 C23.8443858,9.07733802 24.058354,8.69359157 24.1421395,8.29272769 C24.169077,8.16371609 24.1919603,8.0341189 24.1919603,7.90199914 L24.1919603,4.65630352 C24.1920053,5.19888194 23.9486671,5.71470311 23.5205504,6.19484782 Z" id="Shape" fill="#B0BDC9"></path>
                            <path d="M23.5201583,30.7783719 L23.5201583,32.8715552 C23.5201583,34.6688071 18.9333862,36.5933341 12.1053005,36.5933341 C5.27730472,36.5933341 0.690532681,34.6688071 0.690532681,32.8715552 L0.690532681,30.7784142 C0.366612678,30.4372088 0.152557913,30.0767514 0.0688639367,29.7001307 C0.0514314682,29.7382963 0.0190439357,29.7690149 0.0190439357,29.8132312 L0.0190439357,32.8715552 C0.0190439357,35.3121638 5.32811568,37.2240394 12.1053455,37.2240394 C18.8825753,37.2240394 24.191602,35.3122061 24.191602,32.8715552 L24.191602,29.8132312 C24.191602,29.7690572 24.1592145,29.7383386 24.141782,29.7001307 C24.058043,30.0767937 23.8440783,30.4371665 23.5201583,30.7783719 Z" id="Shape-Copy-4" fill="#B0BDC9"></path>
                            <path d="M23.5205504,27.0812945 L23.5205504,29.3095824 C23.5205504,31.2230441 18.9337018,33.2718238 12.1055021,33.2718238 C5.27739246,33.2718238 0.690543886,31.2230441 0.690543886,29.3095824 L0.690543886,27.0813846 C0.366618477,26.7181341 0.152560141,26.3342976 0.068864768,25.9332986 C0.0514320086,25.973885 0.0190439357,26.0066334 0.0190439357,26.0536613 L0.0190439357,29.3095824 C0.0190439357,29.4416571 0.0419272966,29.5712092 0.068864768,29.7001758 C0.152560141,30.1011297 0.366618477,30.4848762 0.690543886,30.8481267 C2.31246825,32.6669919 6.74359296,33.9433238 12.1055021,33.9433238 C17.4675013,33.9433238 21.8987162,32.6669919 23.5205504,30.8480366 C23.8444758,30.4847861 24.0584891,30.1011298 24.1421845,29.7001758 C24.169122,29.5712092 24.1920053,29.4416571 24.1920053,29.3095824 L24.1920053,26.0536613 C24.1920053,26.0066334 24.1596173,25.9738399 24.1421845,25.9332986 C24.0584441,26.3342525 23.8444758,26.718044 23.5205504,27.0812945 Z" id="Shape-Copy-3" fill="#B0BDC9"></path>
                            <path d="M23.5205504,23.3144173 L23.5205504,25.5427052 C23.5205504,27.4563471 18.9337018,29.5051268 12.1055021,29.5051268 C5.27739246,29.5051268 0.690543886,27.456347 0.690543886,25.5427052 L0.690543886,23.3145074 C0.366708586,22.9512569 0.15265025,22.5675105 0.068864768,22.1665565 C0.0514320086,22.207188 0.0190439357,22.2399814 0.0190439357,22.2870094 L0.0190439357,25.5427052 C0.0190439357,25.6747799 0.0419272966,25.804332 0.068864768,25.9332986 C0.152560141,26.3342976 0.366618477,26.7181341 0.690543886,27.0813846 C2.31246825,28.900385 6.74359296,30.1766718 12.1055021,30.1766718 C17.4675013,30.1766718 21.8987162,28.9003399 23.5205504,27.0813396 C23.8444758,26.7180891 24.0584891,26.3342526 24.1421845,25.9333437 C24.169122,25.8043771 24.1920053,25.674825 24.1920053,25.5427503 L24.1920053,22.2870545 C24.1920053,22.2400265 24.1596173,22.207233 24.1421845,22.1666016 C24.058399,22.5674204 23.8443858,22.9511668 23.5205504,23.3144173 Z" id="Shape-Copy-2" fill="#B0BDC9"></path>
                            <path d="M23.5205504,20.0687217 L23.5205504,21.7758279 C23.5205504,23.6894248 18.9337018,25.7383397 12.1055021,25.7383397 C5.27739246,25.7383397 0.690543886,23.6894699 0.690543886,21.7758279 L0.690543886,20.0688118 C0.262427213,19.588667 0.0189989033,19.0728009 0.0189989033,18.5301324 L0.0189989033,21.775828 C0.0189989033,21.9079928 0.0418822641,22.0375449 0.0688197356,22.1665565 C0.152605217,22.5675105 0.366663554,22.9512569 0.690498854,23.3145074 C2.31242321,25.1335078 6.74354793,26.4097946 12.1054571,26.4097946 C17.4674563,26.4097946 21.8986711,25.1334627 23.5205054,23.3144624 C23.8443858,22.9512119 24.058354,22.5674654 24.1421395,22.1666016 C24.169077,22.03759 24.1919603,21.9079928 24.1919603,21.775873 L24.1919603,18.5301774 C24.1920053,19.0727558 23.9486671,19.588577 23.5205504,20.0687217 Z" id="Shape-Copy" fill="#B0BDC9"></path>
                            <path d="M23.5205504,33.9425956 L23.5205504,35.6497018 C23.5205504,37.5632987 18.9337018,39.6122136 12.1055021,39.6122136 C5.27739246,39.6122136 0.690543886,37.5633437 0.690543886,35.6497018 L0.690543886,33.9426857 C0.262427213,33.4625409 0.0189989033,32.9466748 0.0189989033,32.4040062 L0.0189989033,35.6497019 C0.0189989033,35.7818666 0.0418822641,35.9114188 0.0688197356,36.0404304 C0.152605217,36.4413844 0.366663554,36.8251308 0.690498854,37.1883813 C2.31242321,39.0073817 6.74354793,40.2836685 12.1054571,40.2836685 C17.4674563,40.2836685 21.8986711,39.0073366 23.5205054,37.1883363 C23.8443858,36.8250858 24.058354,36.4413393 24.1421395,36.0404754 C24.169077,35.9114638 24.1919603,35.7818666 24.1919603,35.6497469 L24.1919603,32.4040513 C24.1920053,32.9466297 23.9486671,33.4624509 23.5205504,33.9425956 Z" id="Shape-Copy-5" fill="#B0BDC9"></path>
                            <path d="M12.1055021,0.0225170703 C5.34081715,0.0225170703 0.0408011767,2.05062073 0.0208458067,4.64184378 C0.0208458067,4.64675378 0.0189989033,4.6513485 0.0189989033,4.65625849 C0.0189989033,5.19892702 0.262427213,5.71479318 0.690543886,6.19493793 C2.31246825,8.01393833 6.74359296,9.29022511 12.1055021,9.29022511 C17.4675013,9.29022511 21.8987162,8.01389325 23.5205504,6.1948929 C23.9486671,5.71474814 24.1920053,5.19897205 24.1920053,4.65630352 C24.1920053,4.65139353 24.1901134,4.64679881 24.1901134,4.64188882 C24.1702031,2.0505757 18.870142,0.0225170703 12.1055021,0.0225170703 Z M23.5205504,4.65621346 C23.5205504,6.56981034 18.9337018,8.61872521 12.1055021,8.61872521 C5.27739246,8.61872521 0.690543886,6.56985537 0.690543886,4.65621346 C0.690543886,2.74284182 5.27739246,0.693971988 12.1055021,0.693971988 C18.9337018,0.693971944 23.5205504,2.74284182 23.5205504,4.65621346 Z" id="Shape" fill="#B0BDC9"></path>
                            <path id="Shape" fill="#000000"></path>
                            <path id="Shape" fill="#000000"></path>
                            <path id="Shape" fill="#000000"></path>
                            <path id="Shape" fill="#000000"></path>
                            <path d="M12.088832,8.61420503 C18.7062979,8.61420503 23.5270182,6.62084411 23.5270182,4.53111803 C23.5270182,2.44139195 18.6502555,0.580746762 12.0327896,0.580746762 C5.4153237,0.580746762 0.650645763,2.66294407 0.650645763,4.75267015 C0.650645763,6.84239623 5.47136608,8.61420503 12.088832,8.61420503 Z" id="Oval-3" fill="#EFF9FF"></path>
                        </g>
                    </g>
                </g>
            </g>
        </g>
    </g>
</svg>