<?xml version="1.0" encoding="UTF-8"?>
<svg width="111px" height="110px" viewBox="0 0 111 110" version="1.1" xmlns="http://www.w3.org/2000/svg" xmlns:xlink="http://www.w3.org/1999/xlink">
    <!-- Generator: Sketch 41.1 (35376) - http://www.bohemiancoding.com/sketch -->
    <title>icon_chuchaipeitu</title>
    <desc>Created with Sketch.</desc>
    <defs></defs>
    <g id="考勤管理" stroke="none" stroke-width="1" fill="none" fill-rule="evenodd">
        <g transform="translate(-5650.000000, -570.000000)" id="出差">
            <g transform="translate(5650.500000, 570.000000)">
                <g id="Group" transform="translate(17.000000, 11.000000)">
                    <rect id="Rectangle-3" stroke="#B0BDC9" stroke-width="0.5" fill="#FFFFFF" x="12" y="2" width="52" height="80" rx="4"></rect>
                    <path d="M10,76.0054168 L10,3.99458325 C10,1.78843584 11.7956808,0 14.0065556,0 L58.9934444,0" id="Rectangle-3" stroke="#B0BDC9" stroke-width="0.5" stroke-linecap="round" stroke-linejoin="round"></path>
                    <path d="M66.0065556,44.5 L66.0065556,32.5 C66.0065556,30.2938526 67.8022364,28.5054168 70.0131112,28.5054168 L72,28.5054168" id="Rectangle-3" stroke="#B0BDC9" stroke-width="0.5" stroke-linecap="round" stroke-linejoin="round" transform="translate(69.003278, 36.502708) scale(-1, 1) translate(-69.003278, -36.502708) "></path>
                    <path d="M5,35 L5,32.5 C5,30.2938526 6.79568082,28.5054168 9.0065556,28.5054168" id="Rectangle-3" stroke="#B0BDC9" stroke-width="0.5" stroke-linecap="round" stroke-linejoin="round"></path>
                    <g id="Group-19" transform="translate(21.000000, 13.000000)" stroke="#EEEEEE" stroke-linecap="round" stroke-linejoin="round">
                        <path d="M0.5,1.5 L6.5,1.5" id="Line"></path>
                        <path d="M0.5,4.5 L16.5,4.5" id="Line"></path>
                        <path d="M1,17 L7,17" id="Line"></path>
                        <path d="M1,20 L21,20" id="Line"></path>
                    </g>
                    <path d="M0.0298813821,41.9737097 C-0.23834986,39.7790904 1.32893381,38 3.53800375,38 L31.6271786,38 C32.7345653,38 34.1746469,38.7062149 34.8520826,39.5883021 L39.3244028,45.4116979 C39.9980814,46.2888929 41.446458,47 42.5455416,47 L73.0511358,47 C75.2564474,47 76.8458451,48.7852456 76.6027748,50.9728789 L73.4856367,79.0271211 C73.2418411,81.2212815 71.2603235,83 69.044365,83 L9.04404656,83 C6.83499548,83 4.82690521,81.2220865 4.55853013,79.0262903 L0.0298813821,41.9737097 Z" id="Rectangle-3" stroke="#B0BDC9" stroke-width="0.5" fill="#FFFFFF"></path>
                    <path d="M2.02982325,44.9691524 C1.76189963,42.77705 3.32889122,41 5.53499788,41 L31.0562321,41 C32.1579084,41 33.5956671,41.709218 34.2676447,42.5841982 L38.2227684,47.7341539 C38.8947063,48.6090824 40.3417637,49.3183521 41.4487023,49.3183521 L69.1725719,49.3183521 C71.383029,49.3183521 72.9761893,51.107275 72.7326806,53.2988529 L69.920191,78.6112595 C69.6759277,80.8096294 67.6814878,82.5917603 65.4747645,82.5917603 L10.6312906,82.5917603 C8.42041268,82.5917603 6.40971305,80.8046144 6.14302338,78.622608 L2.02982325,44.9691524 Z" id="Rectangle-3" fill="#EFF9FF"></path>
                    <path d="M44.0198818,64.9878391 C43.9107681,64.4422706 44.2609288,64 44.8210601,64 L63.8235679,64 C64.3751601,64 64.7335707,64.4437166 64.6247462,64.9878391 L64.0198818,68.0121609 C63.9107681,68.5577294 63.3713886,69 62.8275428,69 L45.8170852,69 C45.2676882,69 44.7335707,68.5562834 44.6247462,68.0121609 L44.0198818,64.9878391 Z" id="Rectangle-17" stroke="#B0BDC9" stroke-width="0.5" fill="#FFFFFF"></path>
                </g>
                <path d="M76.2081747,33.5953067 L82.2138494,43.9125056 C82.6358032,44.604429 83.3749084,45 84.1369181,45 C84.5010934,45 84.8704435,44.9103528 85.2100045,44.7207682 C86.0289826,44.2631856 86.4371217,43.3588051 86.3111251,42.4823748 L83.4590562,27.184298 L89.7870574,20.8647339 C90.5568518,19.9685767 91,18.8534917 91,17.6685763 C91,16.4203461 90.513293,15.2466646 89.6292016,14.3638084 C87.8485541,12.5864577 84.9839755,12.5485318 83.1502294,14.2370891 C83.0803463,14.3017519 83.0436273,14.3306008 83.0100132,14.3637635 L76.8070637,20.5683366 L61.5203866,17.7250158 C60.642775,17.6004983 59.7366792,18.0080672 59.2784564,18.8263504 C58.6964419,19.8673361 59.0575573,21.178881 60.0749801,21.7872685 L70.4001346,27.7957861 L66.4029363,31.787804 L61.727066,31.565461 L59.8299265,33.4599204 C59.2801418,34.0089284 59.4119781,34.6808167 60.1378848,34.9659248 L66.5181332,37.4718392 L69.0282264,43.8435463 C69.3114332,44.562448 69.9928547,44.6938937 70.5361966,44.1511506 L72.4327754,42.2566617 L72.2105713,37.5872796 L76.2081747,33.5953067 Z" id="Path" stroke="#B0BDC9" stroke-width="0.5" stroke-linecap="round" stroke-linejoin="round" fill="#EFF9FF"></path>
                <rect id="Rectangle-9" x="0" y="0" width="110.26165" height="110"></rect>
            </g>
        </g>
    </g>
</svg>