<?xml version="1.0" encoding="UTF-8" standalone="no"?>
<svg width="40px" height="40px" viewBox="0 0 40 40" version="1.1" xmlns="http://www.w3.org/2000/svg" xmlns:xlink="http://www.w3.org/1999/xlink">
    <!-- Generator: Sketch 40.2 (33826) - http://www.bohemiancoding.com/sketch -->
    <title>icon_baoxiaofenxi</title>
    <desc>Created with Sketch.</desc>
    <defs>
        <linearGradient x1="50.1920635%" y1="0.173809524%" x2="50.1920635%" y2="100%" id="linearGradient-1">
            <stop stop-color="#90BCF9" offset="0%"></stop>
            <stop stop-color="#5F91F4" offset="100%"></stop>
        </linearGradient>
    </defs>
    <g id="icon" stroke="none" stroke-width="1" fill="none" fill-rule="evenodd">
        <g transform="translate(-853.000000, -88.000000)" id="Group-9">
            <g transform="translate(862.000000, 93.000000)">
                <g id="Group-3">
                    <path d="M20.7777778,25.2 L4.22222222,25.2 C3,25.2 2,24.3 2,23.2 L2,2 C2,0.9 3,0 4.22222222,0 L20.7777778,0 C22,0 23,0.9 23,2 L23,23.2 C23,24.3 22,25.2 20.7777778,25.2 L20.7777778,25.2 Z" id="XMLID_331_" fill="#73ACEF" opacity="0.45"></path>
                    <path d="M18.7777778,27.2 L2.22222222,27.2 C1,27.2 0,26.3 0,25.2 L0,4 C0,2.9 1,2 2.22222222,2 L18.7777778,2 C20,2 21,2.9 21,4 L21,25.2 C21,26.3 20,27.2 18.7777778,27.2 L18.7777778,27.2 Z" id="XMLID_281_" fill="url(#linearGradient-1)"></path>
                    <path d="M3.3452431,10.7 C3.23016207,10.7 3,10.6 3,10.4 L3,10.3 C3,10.2 3.11508103,10 3.3452431,10 L18.1906965,10 C18.3057776,10 18.5359396,10.1 18.5359396,10.3 L18.5359396,10.4 C18.5359396,10.6 18.4208586,10.7 18.1906965,10.7 L3.3452431,10.7 Z" id="XMLID_467_" fill="#FFFFFF"></path>
                    <path d="M13.9326983,15.7 L3.3452431,15.7 C3.23016207,15.7 3,15.6 3,15.4 L3,15.3 C3,15.2 3.11508103,15 3.3452431,15 L13.9326983,15 C14.0477793,15 14.2779414,15.1 14.2779414,15.3 L14.2779414,15.4 C14.1628603,15.6 14.0477793,15.7 13.9326983,15.7 L13.9326983,15.7 Z" id="XMLID_469_" fill="#FFFFFF"></path>
                    <g id="XMLID_273_" transform="translate(12.000000, 18.000000)">
                        <circle id="XMLID_385_" fill="#7EB6ED" cx="6.9" cy="7.3" r="6.5"></circle>
                        <g id="XMLID_395_" transform="translate(4.000000, 4.000000)" fill="#FFFFFF">
                            <path d="M2.9,7.2 C2.6,7.2 2.4,7 2.4,6.7 L2.4,3.1 C2.4,2.8 2.6,2.6 2.9,2.6 C3.2,2.6 3.4,2.8 3.4,3.1 L3.4,6.7 C3.4,6.9 3.2,7.2 2.9,7.2 L2.9,7.2 Z" id="XMLID_325_"></path>
                            <path d="M4.8,5.2 L1.2,5.2 C0.8,5.2 0.6,5 0.6,4.7 C0.6,4.4 0.9,4.2 1.2,4.2 L4.8,4.2 C5.2,4.2 5.4,4.4 5.4,4.7 C5.4,5 5.1,5.2 4.8,5.2 L4.8,5.2 Z" id="XMLID_313_"></path>
                            <path d="M4.8,3.6 L1.2,3.6 C0.8,3.6 0.6,3.4 0.6,3.1 C0.6,2.8 0.9,2.6 1.2,2.6 L4.8,2.6 C5.2,2.6 5.4,2.8 5.4,3.1 C5.4,3.4 5.1,3.6 4.8,3.6 L4.8,3.6 Z" id="XMLID_314_"></path>
                            <g id="XMLID_282_">
                                <path d="M2.6,3.3 L0.6,1.3 C0.4,1.1 0.4,0.8 0.6,0.6 C0.8,0.4 1.1,0.4 1.3,0.6 L3.3,2.6 C3.5,2.8 3.5,3.1 3.3,3.3 C3.1,3.5 2.8,3.5 2.6,3.3 L2.6,3.3 Z" id="XMLID_322_"></path>
                                <path d="M2.6,3.3 C2.4,3.1 2.4,2.8 2.6,2.6 L4.6,0.6 C4.8,0.4 5.1,0.4 5.3,0.6 C5.5,0.8 5.5,1.1 5.3,1.3 L3.3,3.3 C3.1,3.5 2.8,3.5 2.6,3.3 L2.6,3.3 Z" id="XMLID_323_"></path>
                            </g>
                        </g>
                    </g>
                </g>
            </g>
        </g>
    </g>
</svg>