<?xml version="1.0" encoding="UTF-8" standalone="no"?>
<svg width="40px" height="40px" viewBox="0 0 40 40" version="1.1" xmlns="http://www.w3.org/2000/svg" xmlns:xlink="http://www.w3.org/1999/xlink">
    <!-- Generator: Sketch 40.2 (33826) - http://www.bohemiancoding.com/sketch -->
    <title>icon_kaoqingfenxi</title>
    <desc>Created with Sketch.</desc>
    <defs>
        <linearGradient x1="50.0579735%" y1="-26.629813%" x2="50.0579735%" y2="132.197695%" id="linearGradient-1">
            <stop stop-color="#F1B326" offset="0%"></stop>
            <stop stop-color="#FFA775" offset="100%"></stop>
        </linearGradient>
    </defs>
    <g id="icon" stroke="none" stroke-width="1" fill="none" fill-rule="evenodd">
        <g transform="translate(-677.000000, -88.000000)" id="iconfont-crmtubiao65">
            <g transform="translate(683.000000, 93.000000)">
                <path d="M4.8,22.9 C8.7,27.3 12.7,30.4 12.7,30.4 C13.4,31 14.6,31 15.3,30.4 C15.3,30.4 19.3,27.3 23.2,22.9 C25.9,19.3 27.4,16.9 27.4,13.7 C27.4,6.6 21.4,0.8 14,0.8 C6.6,0.8 0.6,6.6 0.6,13.7 C0.6,16.9 2.1,19.2 4.8,22.9 L4.8,22.9 Z" id="Combined-Shape_2_" fill="url(#linearGradient-1)"></path>
                <path d="M24.2,23 C24.2,26.3 23.8,28.9 18.9,28.9 C16.7,28.9 15.7,28.5 14.8,27.8 L14.7,27.8 C14.6,27.7 14.5,27.7 14.4,27.6 L9.2,22.4 C8.5,21.7 8.9,20.7 9.3,20.3 C9.5,20.1 9.9,19.9 10.3,19.9 C10.7,19.9 11,20 11.3,20.3 L13.2,22.2 L13.2,13.9 C13.2,13.1 13.8,12.5 14.6,12.5 C15.4,12.5 16,13.1 16,13.9 L16,16.5 L16,16.5 L16,19.2 C16,19.5 16.2,19.7 16.5,19.7 C16.8,19.7 17,19.5 17,19.2 L17,16 C17.1,16 17.3,15.9 17.4,15.9 C18,15.9 18.5,16.3 18.7,16.9 L18.8,17.1 L18.8,20.1 C18.8,20.4 19,20.6 19.3,20.6 C19.6,20.6 19.8,20.4 19.8,20.1 L19.8,17.1 C19.9,17.1 20.1,17 20.3,17 C20.9,17 21.4,17.4 21.6,18 L21.6,18.1 L21.6,21.1 C21.6,21.4 21.8,21.6 22.1,21.6 C22.4,21.6 22.6,21.4 22.6,21.1 L22.6,18.1 C22.7,18 22.9,18 23.1,18 C23.9,18 24.4,18.6 24.4,19.4 L24.2,23 L24.2,23 L24.2,23 L24.2,23 Z" id="Fill-1_2_" fill="#FFFBDF"></path>
                <path d="M11,18.1 C11.1,18.2 11.2,18.2 11.3,18.2 C11.4,18.2 11.6,18.1 11.7,18 C11.9,17.8 11.8,17.5 11.6,17.4 C10.4,16.5 9.7,15.1 9.7,13.6 C9.7,11 11.8,8.8 14.5,8.8 C17.1,8.8 19.3,10.9 19.3,13.6 C19.3,13.9 19.3,14.2 19.2,14.5 C19.2,14.7 19.3,15 19.6,15 C19.8,15 20.1,14.9 20.1,14.6 C20.2,14.2 20.2,13.9 20.2,13.5 C20.2,10.4 17.7,7.8 14.5,7.8 C11.4,7.8 8.8,10.3 8.8,13.5 C8.7,15.3 9.6,17 11,18.1" id="Fill-2_2_" stroke="#FFFBDF" fill="#FFFBDF"></path>
            </g>
        </g>
    </g>
</svg>