<?xml version="1.0" encoding="UTF-8"?>
<svg width="20px" height="20px" viewBox="0 0 20 20" version="1.1" xmlns="http://www.w3.org/2000/svg" xmlns:xlink="http://www.w3.org/1999/xlink">
    <!-- Generator: Sketch 41.1 (35376) - http://www.bohemiancoding.com/sketch -->
    <title>icon－xiazai copy 3</title>
    <desc>Created with Sketch.</desc>
    <defs></defs>
    <g id="资产" stroke="none" stroke-width="1" fill="none" fill-rule="evenodd">
        <g id="3.0.4个人报表－资产－历史领用资产－筛选" transform="translate(-845.000000, -81.000000)">
            <g id="Group-6">
                <g id="下载" transform="translate(845.000000, 81.000000)">
                    <rect id="Rectangle-754" x="0" y="0" width="20" height="20"></rect>
                    <g id="导出" transform="translate(1.000000, 1.000000)">
                        <g id="Group">
                            <path d="M3.42174515,8.19127424 L7.46052632,8.19127424" id="Line" stroke="#999999" stroke-linecap="square"></path>
                            <path d="M3.42174515,11.3774238 L5.44113573,11.3774238" id="Line" stroke="#999999" stroke-linecap="square"></path>
                            <path d="M3.42174515,5.00512465 L9.4799169,5.00512465" id="Line" stroke="#999999" stroke-linecap="square"></path>
                            <path d="M15.483206,7.93062162 C14.9023749,7.39748311 14.306908,6.86420237 13.7399074,6.33205944 L13.7399074,1.3448433 C13.7399334,0.600374168 13.2490723,0.0103614433 12.6406709,0.0103614433 L1.10778139,0.0103614433 C0.499406031,0.0103456405 0.00389574857,0.600374168 0.00389574857,1.3448275 L0.00389574857,14.1796111 C0.00389574857,14.9240803 0.499406031,15.5410052 1.10778139,15.5410052 L7.40876232,15.5410052 C7.38920477,15.6753288 7.37182892,15.7548168 7.37182892,15.8642511 C7.37182892,15.966985 7.37176398,16.0697505 7.37176398,16.1725002 C7.37176398,16.4341469 7.34976496,16.6938972 7.445449,16.9357588 C7.58871531,17.2978638 8.08703066,17.2105534 8.15275499,16.8232746 C8.17032564,16.7660211 8.18326013,16.7336254 8.19633746,16.7012929 C8.22588158,16.6282841 8.25628282,16.5557493 8.28689185,16.4833884 C8.3541356,16.324523 8.42478179,16.1678068 8.49749281,16.012576 C8.5722557,15.8529205 8.65070673,15.6958882 8.73193686,15.541021 L12.640632,15.541021 C13.1605568,15.541021 13.5943555,15.0903256 13.7095971,14.4946871 L17.7566367,10.8441334 C18.0062749,10.6189279 17.9996388,10.2572813 17.7566627,10.0308748 C17.0012549,9.32693977 16.2428214,8.62782463 15.483206,7.93062162 Z M7.46959077,14.7337358 L1.64878314,14.7337358 C1.10800216,14.7337358 0.667281632,14.1853476 0.667281632,13.5236376 L0.667281632,2.00378777 C0.667281632,1.34207782 1.10800216,0.817599235 1.64877015,0.817599235 L12.0996822,0.817599235 C12.6404761,0.817599235 13.0765475,1.34207782 13.0765475,2.00378777 L13.0765475,5.73081093 C13.0381077,5.71491333 12.9972394,5.71935391 12.9548387,5.71935391 L12.8924778,5.71935391 C12.6815133,5.71935391 12.5015863,5.92009667 12.5015863,6.17679709 L12.5015863,8.1150875 C12.2804533,8.13599459 12.0640604,8.15729673 11.8454858,8.20917728 C11.5102151,8.28877591 11.1837362,8.42907302 10.8673218,8.58351362 C10.5467257,8.73997698 10.2364539,8.91690494 9.94841486,9.15015403 C9.67450505,9.37196191 9.42075018,9.63340316 9.18944884,9.91771103 C8.25052983,11.0719463 7.71099555,12.6615483 7.51843274,14.2530151 C7.49910892,14.4128286 7.48346028,14.5731479 7.46959077,14.7337358 Z M12.0996822,14.7337516 L9.19714979,14.7337516 C9.26502987,14.6288211 9.33711754,14.5232111 9.42534737,14.3978634 C9.60595094,14.1411377 9.79943764,13.8982588 10.0046981,13.6706193 C10.0537998,13.6161787 10.1041611,13.5633816 10.1547952,13.5110744 C10.1749408,13.4903929 10.1952176,13.4699014 10.2156237,13.4496016 C10.2152471,13.4499808 10.2710757,13.3960617 10.2760366,13.3906256 C10.3833564,13.2911154 10.4949099,13.1984953 10.6089697,13.1108847 C10.7177441,13.0273354 10.8303754,12.9514346 10.9447988,12.8800534 C11.0885197,12.7904043 11.1681005,12.7497911 11.2862121,12.6976261 C11.4116351,12.6422215 11.5408371,12.6003758 11.6711299,12.5660047 C11.8409795,12.5212038 11.8666536,12.5207772 12.0400355,12.5077557 C12.1734191,12.4977209 12.3072703,12.5002967 12.4406669,12.5087038 C12.4623802,12.5102051 12.4840676,12.5121172 12.5057679,12.5140768 C12.4933788,13.2239378 12.4809248,13.9337989 12.4684838,14.6436757 C12.3516788,14.7032127 12.2263083,14.7338341 12.0996822,14.7337516 Z M13.2616172,13.5497596 L13.286616,12.1233372 C13.2900445,11.9282992 13.1672448,11.7060172 13.0025119,11.66926 C12.6934348,11.6003124 12.3951105,11.5489218 12.0798389,11.5635077 C11.7546587,11.5785362 11.4273746,11.6484003 11.1186092,11.7733055 C10.522506,12.014456 9.98706247,12.4402462 9.51683677,12.940183 C9.05259781,13.433704 8.65661555,14.0228159 8.30121588,14.6334039 C8.28202357,14.6664136 8.26300671,14.6995738 8.24416648,14.7328824 C8.24697155,14.6993489 8.24945196,14.6657996 8.25238689,14.6322661 C8.28132066,14.3017825 8.36017428,13.8442287 8.44780672,13.4545004 C8.48999964,13.266874 8.53760789,13.0810332 8.58912507,12.8969308 C8.61344866,12.8100471 8.63951242,12.7238903 8.66617357,12.638018 C8.67945869,12.5951925 8.69336716,12.552683 8.70724965,12.5101735 C8.71475581,12.4874649 8.72240482,12.4648195 8.7300798,12.4421741 L8.74071568,12.4121488 C8.86454131,12.0642505 9.01317101,11.729832 9.18337118,11.4123225 C9.35503882,11.0920949 9.49808436,10.8817756 9.73698276,10.5837036 C9.84070539,10.4543262 9.95024594,10.3321232 10.0634876,10.2152458 C10.0917331,10.1861055 10.120563,10.1578501 10.1494059,10.1295948 C10.1678206,10.1120221 10.176093,10.1045948 10.1883911,10.0933748 C10.2575828,10.0303533 10.3290861,9.97118766 10.4014985,9.91376035 C10.5264539,9.81462948 10.6571753,9.726687 10.7908706,9.64639305 C10.9675381,9.54032477 11.0574301,9.4973728 11.228903,9.41810603 C11.54759,9.27077668 11.8754584,9.14874759 12.2124304,9.08288158 C12.2582985,9.07553329 12.2843882,9.07211989 12.3105039,9.06906995 C12.3779295,9.06075768 12.4456407,9.05642772 12.513352,9.05317234 C12.6412423,9.04700926 12.7633538,9.03223365 12.8905039,9.01445553 C13.100001,8.98510975 13.2755386,8.82242011 13.2755386,8.54353258 L13.2755386,7.08077953 C13.8725898,7.63201223 14.4630179,8.16794783 15.0555498,8.71168999 C15.6782103,9.28307125 16.3019226,9.85592214 16.9219987,10.4314437 L13.4649847,13.5497596 L13.2616172,13.5497596 Z" id="Shape" fill="#999999"></path>
                        </g>
                    </g>
                </g>
            </g>
        </g>
    </g>
</svg>