<?xml version="1.0" encoding="UTF-8" standalone="no"?>
<svg width="40px" height="40px" viewBox="0 0 40 40" version="1.1" xmlns="http://www.w3.org/2000/svg" xmlns:xlink="http://www.w3.org/1999/xlink">
    <!-- Generator: Sketch 40.2 (33826) - http://www.bohemiancoding.com/sketch -->
    <title>icon_cichanfenxi</title>
    <desc>Created with Sketch.</desc>
    <defs>
        <path d="M15.0425263,15.7923376 L16.3782259,12.9494921 C16.4249449,12.8500572 16.5525967,12.7694494 16.6556379,12.7694494 L18.3593883,12.7694494 C18.4658796,12.7694494 18.5104299,12.8590943 18.4706908,12.9443642 L16.8621055,16.3959748 L18.3146179,16.3959748 C18.4267306,16.3959748 18.517616,16.4943418 18.517616,16.5917736 L18.517616,18.0297716 C18.517616,18.1379083 18.4182125,18.2255704 18.3203776,18.2255704 L16.2042259,18.2255704 L16.2039322,19.1349905 L18.3203526,19.1349905 C18.4292981,19.1349905 18.517616,19.2325745 18.517616,19.3292308 L18.517616,20.7557832 C18.517616,20.8630592 18.4181999,20.9500236 18.3203526,20.9500236 L16.2039322,20.9500236 L16.2039322,22.5747389 C16.2039322,22.6822746 16.1157485,22.7694494 16.0059734,22.7694494 L14.0800506,22.7694494 C13.970721,22.7694494 13.8820918,22.6716291 13.8820918,22.5747389 L13.8820918,20.9500236 L11.7647827,20.9500236 C11.6557914,20.9500236 11.5674365,20.8524395 11.5674365,20.7557832 L11.5674365,19.3292308 C11.5674365,19.2219548 11.655597,19.1349905 11.7653433,19.1349905 L13.8886668,19.1349905 L13.8886668,18.2255704 L11.7775374,18.2255704 C11.6688642,18.2255704 11.5800505,18.1272034 11.5793406,18.0297716 L11.5688631,16.5917736 C11.5680752,16.4836369 11.6582017,16.3959748 11.7744435,16.3959748 L13.255641,16.3959748 L11.634368,12.9443642 C11.5889923,12.8477614 11.6437009,12.7694494 11.7487099,12.7694494 L13.6814992,12.7694494 L15.0425263,15.7923376 Z" id="path-1"></path>
        <filter x="-50%" y="-50%" width="200%" height="200%" filterUnits="objectBoundingBox" id="filter-2">
            <feOffset dx="0" dy="2" in="SourceAlpha" result="shadowOffsetOuter1"></feOffset>
            <feGaussianBlur stdDeviation="2" in="shadowOffsetOuter1" result="shadowBlurOuter1"></feGaussianBlur>
            <feColorMatrix values="0 0 0 0 0   0 0 0 0 0   0 0 0 0 0  0 0 0 0.05 0" type="matrix" in="shadowBlurOuter1"></feColorMatrix>
        </filter>
        <linearGradient x1="50%" y1="0%" x2="50%" y2="81.9156569%" id="linearGradient-3">
            <stop stop-color="#FFDE95" offset="0%"></stop>
            <stop stop-color="#FFB95B" offset="100%"></stop>
        </linearGradient>
    </defs>
    <g id="icon" stroke="none" stroke-width="1" fill="none" fill-rule="evenodd">
        <g transform="translate(-944.000000, -88.000000)" id="资产管理">
            <g transform="translate(948.000000, 93.000000)">
                <g id="Group-4">
                    <path d="M24,15.923642 L28.6165433,15.923642 C29.7193968,15.923642 29.9869708,15.2805035 29.2212198,14.487152 L15.5264137,0.298732126 C15.1432242,-0.0982690409 14.5153361,-0.100883564 14.129623,0.298732126 L0.434816897,14.487152 C-0.333114219,15.2827623 -0.0563721573,15.923642 1.04806799,15.923642 L5,15.923642 L5,24.8664171 C5,25.965207 5.89427625,26.8659765 6.99742191,26.8659765 L22.0025781,26.8659765 C23.1090746,26.8659765 24,25.9707432 24,24.8664171 L24,15.923642 Z" id="Combined-Shape" fill-opacity="0.797780797" fill="#FF8E41"></path>
                    <path d="M20,1.00968386 C20,0.452050864 20.4437166,0 20.9998075,0 L24.0001925,0 C24.5523709,0 25,0.446311399 25,0.997544646 L25,9 L20,3.55666505 L20,1.00968386 Z" id="Rectangle-6" fill-opacity="0.797780797" fill="#FF8E41"></path>
                    <g id="Path">
                        <use fill="black" fill-opacity="1" filter="url(#filter-2)" xlink:href="#path-1"></use>
                        <use fill="#FFD868" fill-rule="evenodd" xlink:href="#path-1"></use>
                    </g>
                </g>
                <path d="M29.9342978,23.5999592 C29.8206465,23.2020032 29.6618763,22.8229674 29.4629261,22.4700375 L30.2777955,21.6551681 C30.6450038,21.2879598 30.6450038,20.6957512 30.2777955,20.3286172 L29.6145107,19.6653325 C29.2473767,19.2981242 28.6550938,19.2981242 28.2879598,19.6653325 L27.4588864,20.4944059 C27.1271976,20.3119993 26.771891,20.169847 26.399948,20.065628 L26.399948,18.9332925 C26.399948,18.4168948 25.9830532,18 25.4666555,18 L24.5333445,18 C24.0169468,18 23.5999777,18.4168948 23.5999777,18.9332925 L23.5999777,20.063307 C23.2162258,20.1722422 22.8490732,20.3238268 22.5055755,20.5133447 L21.6527729,19.6605421 C21.2856389,19.293408 20.6933746,19.293408 20.326222,19.6605421 L19.6629373,20.3238268 C19.295729,20.6910351 19.295729,21.2832437 19.6629373,21.6503777 L20.5157399,22.5031803 C20.3238268,22.846678 20.1746374,23.2114911 20.065628,23.5976382 L18.9333111,23.5976382 C18.4168948,23.5976382 18,24.014533 18,24.5309493 L18,25.4642418 C18,25.980658 18.4168948,26.3976271 18.9333111,26.3976271 L20.065628,26.3976271 C20.169847,26.7671563 20.3120179,27.1248767 20.4944245,27.4564726 L19.6653325,28.2855646 C19.2981242,28.6527729 19.2981242,29.2449815 19.6653325,29.6121155 L20.3286172,30.2754003 C20.6957698,30.6426086 21.2879598,30.6426086 21.6551681,30.2754003 L22.4700375,29.4605309 C22.8229674,29.6618763 23.2020032,29.8206279 23.5999777,29.9319768 L23.5999777,31.0642195 C23.5999777,31.5806915 24.0169468,31.9976048 24.5333445,31.9976048 L25.4666555,31.9976048 C25.9830532,31.9976048 26.399948,31.5806915 26.399948,31.0642195 L26.399948,29.9342978 C26.7836999,29.825344 27.1509268,29.6737594 27.4944245,29.4842415 L28.2879598,30.2777955 C28.6550938,30.6450038 29.2473767,30.6450038 29.6145107,30.2777955 L30.2777955,29.6145107 C30.6450038,29.2473581 30.6450038,28.6550938 30.2777955,28.2879598 L29.4842601,27.4944059 C29.6760989,27.1509082 29.8253626,26.7860951 29.9342978,26.399948 L31.0666147,26.399948 C31.5830309,26.399948 32,25.980658 32,25.466637 L32,24.5333445 C32,24.0192491 31.58071,23.5999592 31.0666147,23.5999592 L29.9342978,23.5999592 Z" id="Path" fill="url(#linearGradient-3)"></path>
                <path d="M23,25.0000066 C23,23.8950633 23.8950604,23 25,23 C26.1048733,23 27,23.8950633 27,25.0000066 C27,26.1048836 26.1048733,27 25,27 C23.8950604,27 23,26.1048836 23,25.0000066 Z" id="Path" fill="#FEA467"></path>
            </g>
        </g>
    </g>
</svg>