<?xml version="1.0" encoding="UTF-8" standalone="no"?>
<svg width="40px" height="40px" viewBox="0 0 40 40" version="1.1" xmlns="http://www.w3.org/2000/svg" xmlns:xlink="http://www.w3.org/1999/xlink">
    <!-- Generator: Sketch 40.2 (33826) - http://www.bohemiancoding.com/sketch -->
    <title>icon_renwufenxi</title>
    <desc>Created with Sketch.</desc>
    <defs>
        <linearGradient x1="50%" y1="0%" x2="50%" y2="100.401606%" id="linearGradient-1">
            <stop stop-color="#90BCF9" offset="0%"></stop>
            <stop stop-color="#5F91F4" offset="100%"></stop>
        </linearGradient>
    </defs>
    <g id="icon" stroke="none" stroke-width="1" fill="none" fill-rule="evenodd">
        <g transform="translate(-500.000000, -90.000000)" id="Group-8">
            <g transform="translate(508.000000, 95.000000)">
                <path d="M21.6916667,28.4888889 L2.08333333,28.4888889 C1.54166667,28.4888889 1,27.9518519 1,27.4148148 L1,5.07407407 C1,4.42962963 1.54166667,4 2.08333333,4 L21.6916667,4 C22.2333333,4 22.775,4.42962963 22.775,5.07407407 L22.775,27.4148148 C22.775,27.9518519 22.2333333,28.4888889 21.6916667,28.4888889 L21.6916667,28.4888889 Z" id="XMLID_278_" fill="#6F9AF1" opacity="0.43"></path>
                <path d="M15.1666667,1.07407407 L15.1666667,1.18148148 C15.1666667,0.322222222 15.0583333,0 14.1916667,0 L9.53333333,0 C8.66666667,0 8.66666667,0.42962963 8.66666667,1.18148148 L8.66666667,1.07407407 L6.5,1.07407407 L6.5,6.44444444 L17.3333333,6.44444444 L17.3333333,1.07407407 L15.1666667,1.07407407 L15.1666667,1.07407407 Z M11.9166667,4.61851852 C10.9416667,4.61851852 10.1833333,3.86666667 10.1833333,2.9 C10.1833333,1.93333333 10.9416667,1.18148148 11.9166667,1.18148148 C12.8916667,1.18148148 13.65,1.93333333 13.65,2.9 C13.5416667,3.97407407 12.7833333,4.61851852 11.9166667,4.61851852 L11.9166667,4.61851852 Z M22.1,3.22222222 L19.5,3.22222222 L19.5,8.59259259 L4.33333333,8.59259259 L4.33333333,3.22222222 L1.73333333,3.22222222 C1.19166667,3.22222222 0,3.75925926 0,4.2962963 L0,25.0259259 C0,25.562963 1.08333333,26.7444444 1.73333333,26.7444444 L22.1,26.7444444 C22.6416667,26.7444444 23.8333333,25.562963 23.8333333,25.0259259 L23.8333333,4.2962963 C23.8333333,3.75925926 22.6416667,3.22222222 22.1,3.22222222 L22.1,3.22222222 Z" id="XMLID_286_" fill="url(#linearGradient-1)"></path>
                <path d="M16.7645833,14.0703704 L11.0229167,21.0518519 C11.0229167,21.1592593 10.9145833,21.1592593 10.80625,21.0518519 L6.58125,17.6148148 C6.47291667,17.5074074 6.47291667,17.4 6.58125,17.2925926 L7.23125,16.4333333 C7.33958333,16.3259259 7.44791667,16.3259259 7.55625,16.4333333 L10.6979167,19.0111111 L15.68125,12.9962963 C15.7895833,12.8888889 15.8979167,12.8888889 16.00625,12.8888889 L16.8729167,13.5333333 C16.8729167,13.7481481 16.98125,13.8555556 16.7645833,14.0703704 L16.7645833,14.0703704 Z" id="XMLID_291_" fill="#FFFFFF"></path>
            </g>
        </g>
    </g>
</svg>