<?xml version="1.0" encoding="UTF-8" standalone="no"?>
<svg width="40px" height="40px" viewBox="0 0 40 40" version="1.1" xmlns="http://www.w3.org/2000/svg" xmlns:xlink="http://www.w3.org/1999/xlink">
    <!-- Generator: Sketch 40.2 (33826) - http://www.bohemiancoding.com/sketch -->
    <title>icon_xinchoufenxi</title>
    <desc>Created with Sketch.</desc>
    <defs>
        <linearGradient x1="50.0271429%" y1="-63.0328571%" x2="50.0271429%" y2="99.9971429%" id="linearGradient-1">
            <stop stop-color="#FDEB9F" offset="0%"></stop>
            <stop stop-color="#F8D265" offset="100%"></stop>
        </linearGradient>
        <linearGradient x1="49.989048%" y1="-0.690326331%" x2="49.989048%" y2="100.011832%" id="linearGradient-2">
            <stop stop-color="#F1B326" offset="0%"></stop>
            <stop stop-color="#FFA775" offset="100%"></stop>
        </linearGradient>
    </defs>
    <g id="icon" stroke="none" stroke-width="1" fill="none" fill-rule="evenodd">
        <g transform="translate(-769.000000, -88.000000)" id="Group-2">
            <g transform="translate(774.000000, 93.000000)">
                <path d="M28,17 L28,24 C28,26.2 26.2,28 24,28 L4,28 C1.8,28 0,26.2 0,24 L0,17 C1.7,17 3,15.7 3,14 C3,12.3 1.7,11 0,11 L0,4 C0,1.8 1.8,0 4,0 L24,0 C26.2,0 28,1.8 28,4 L28,11 C26.3,11 25,12.3 25,14 C25,15.7 26.3,17 28,17 L28,17 Z" id="Combined-Shape_3_" fill="url(#linearGradient-1)"></path>
                <path d="M18.9,18.1468179 C18.9,18.7468179 18.3,19.3468179 17.7,19.3468179 L15.3,19.3468179 L15.3,21.7468179 C15.3,22.3468179 14.7,22.9468179 14.1,22.9468179 C13.5,22.9468179 12.9,22.3468179 12.9,21.7468179 L12.9,19.3468179 L10.2,19.3468179 C9.5,19.3468179 9,18.7468179 9,18.1468179 C9,17.5468179 9.6,16.9468179 10.2,16.9468179 L12.9,16.9468179 L12.9,15.7468179 L10.2,15.7468179 C9.5,15.7468179 9,15.1468179 9,14.5468179 C9,13.9468179 9.6,13.3468179 10.2,13.3468179 L12.6,13.3468179 L10.6,10.9468179 C10.2,10.3468179 10.3,9.64681792 10.8,9.24681792 C11.4,8.84681792 12.1,8.94681792 12.5,9.44681792 L14.1,11.4468179 L15.7,9.54681792 C16.1,8.94681792 16.8,8.94681792 17.4,9.34681792 C17.9,9.74681792 18.1,10.4468179 17.6,11.0468179 L15.6,13.4468179 L17.7,13.4468179 C18.3,13.4468179 18.9,14.0468179 18.9,14.6468179 C18.9,15.2468179 18.3,15.8468179 17.7,15.8468179 L15.3,15.8468179 L15.3,17.0468179 L17.7,17.0468179 L17.7,16.9468179 C18.3,16.9468179 18.9,17.4468179 18.9,18.1468179 L18.9,18.1468179 L18.9,18.1468179 Z" id="iconfont-xinchoufuli" fill="#FE6F3B"></path>
                <path d="M32,23.5 L30.9,23.5 C30.8,23.1 30.6,22.7 30.4,22.4 L31.2,21.6 C31.6,21.2 31.6,20.6 31.2,20.3 L30.5,19.6 C30.1,19.2 29.5,19.2 29.2,19.6 L28.4,20.4 C28.1,20.2 27.7,20.1 27.3,20 L27.3,18.9 C27.3,18.4 26.9,18 26.4,18 L25.5,18 C25,18 24.6,18.4 24.6,18.9 L24.6,20 C24.2,20.1 23.8,20.3 23.5,20.5 L22.6,19.6 C22.2,19.2 21.6,19.2 21.3,19.6 L20.6,20.3 C20.2,20.7 20.2,21.3 20.6,21.6 L21.5,22.5 C21.3,22.8 21.2,23.2 21,23.6 L19.9,23.6 C19.4,23.6 19,24 19,24.5 L19,25.4 C19,25.9 19.4,26.3 19.9,26.3 L21,26.3 C21.1,26.7 21.2,27 21.4,27.4 L20.6,28.2 C20.2,28.6 20.2,29.2 20.6,29.5 L21.3,30.2 C21.7,30.6 22.3,30.6 22.6,30.2 L23.4,29.4 C23.8,29.6 24.1,29.8 24.5,29.9 L24.5,31 C24.5,31.5 24.9,31.9 25.4,31.9 L26.3,31.9 C26.8,31.9 27.2,31.5 27.2,31 L27.2,29.9 C27.6,29.8 28,29.6 28.3,29.4 L29.1,30.2 C29.5,30.6 30.1,30.6 30.4,30.2 L31.1,29.5 C31.5,29.1 31.5,28.5 31.1,28.2 L30.3,27.4 C30.5,27.1 30.6,26.7 30.8,26.3 L31.9,26.3 C32.4,26.3 32.8,25.9 32.8,25.4 L32.8,24.5 C32.9,23.9 32.5,23.5 32,23.5 M25.9,26.9 C24.8,26.9 23.9,26 23.9,24.9 C23.9,23.8 24.8,22.9 25.9,22.9 C27,22.9 27.9,23.8 27.9,24.9 C27.9,26 27,26.9 25.9,26.9" id="iconfont-systemset_2_" fill="url(#linearGradient-2)"></path>
            </g>
        </g>
    </g>
</svg>