<?xml version="1.0" encoding="UTF-8" standalone="no"?>
<svg width="111px" height="110px" viewBox="0 0 111 110" version="1.1" xmlns="http://www.w3.org/2000/svg" xmlns:xlink="http://www.w3.org/1999/xlink">
    <!-- Generator: Sketch 40.2 (33826) - http://www.bohemiancoding.com/sketch -->
    <title>icon_chuchaipeitu copy 2</title>
    <desc>Created with Sketch.</desc>
    <defs></defs>
    <g id="薪酬" stroke="none" stroke-width="1" fill="none" fill-rule="evenodd">
        <g id="4.0.1--个人报表薪酬管理无数据" transform="translate(-434.000000, -378.000000)">
            <g id="Group-3" transform="translate(90.000000, 277.000000)">
                <g id="未标题-1" transform="translate(344.500000, 101.000000)">
                    <g id="Group">
                        <g>
                            <rect id="Rectangle-9-Copy" x="0" y="0" width="110.26165" height="110"></rect>
                            <g id="Group-2" transform="translate(10.130825, 9.500000)">
                                <rect id="Rectangle-path" fill="#FFFFFF" x="0" y="18.2857143" width="90" height="48.2142857"></rect>
                                <path d="M70.7142857,2.21428571 L67.5,2.21428571 C65.724799,2.21428571 64.2857143,3.65010285 64.2857143,5.42798868 L64.2857143,26.3214286" id="Shape" stroke="#B0BDCA" stroke-width="0.5"></path>
                                <rect id="Rectangle-path" stroke="#B0BDCA" stroke-width="0.5" fill="#FFFFFF" x="0" y="18.2857143" width="90" height="48.2142857" rx="3"></rect>
                                <rect id="Rectangle-path" fill="#FFFFFF" x="70.7142857" y="53.6428571" width="12.8571429" height="19.2857143"></rect>
                                <rect id="Rectangle-path" fill="#EFF9FF" x="70.7142857" y="2.21428571" width="12.8571429" height="51.4285714"></rect>
                                <path d="M70.7142857,72.9285714 L70.7142857,2.21428571" id="Shape" stroke="#B0BDCA" stroke-width="0.5"></path>
                                <path d="M83.5714286,2.21428571 L83.5714286,72.9285714" id="Shape" stroke="#B0BDCA" stroke-width="0.5"></path>
                                <path d="M83.5714286,72.9285714 L83.5714286,78.9572643 C83.5714286,80.0657116 82.9315301,81.6041842 82.1606513,82.375063 L77.1428571,87.3928571 L72.125063,82.375063 C71.3459122,81.5959122 70.7142857,80.0736209 70.7142857,78.9572643 L70.7142857,72.9285714 L83.5714286,72.9285714 Z" id="Shape" stroke="#B0BDCA" stroke-width="0.5" fill="#EFF9FF"></path>
                                <path d="M77.1428571,87.3928571 L77.1428571,90.6071429" id="Shape" stroke="#B0BDCA" stroke-width="0.5"></path>
                                <path d="M70.7142857,53.6428571 L83.5714286,53.6428571" id="Shape" stroke="#B0BDCA" stroke-width="0.5"></path>
                                <path d="M77.1428571,58.4642857 L77.1428571,61.6785714" id="Shape" stroke="#B0BDCA" stroke-width="0.5"></path>
                                <path d="M77.1428571,64.8928571 L77.1428571,68.1071429" id="Shape" stroke="#B0BDCA" stroke-width="0.5"></path>
                                <path d="M30.5357143,24.7142857 L46.6071429,24.7142857" id="Shape" stroke="#EEEEEE"></path>
                                <path d="M30.5357143,34.3571429 L65.8928571,34.3571429" id="Shape" stroke="#EEEEEE"></path>
                                <path d="M30.5357143,40.7857143 L65.8928571,40.7857143" id="Shape" stroke="#EEEEEE"></path>
                                <path d="M30.5357143,47.2142857 L65.8928571,47.2142857" id="Shape" stroke="#EEEEEE"></path>
                                <path d="M30.5357143,60.0714286 L36.9642857,60.0714286" id="Shape" stroke="#EEEEEE"></path>
                                <path d="M40.1785714,60.0714286 L53.0357143,60.0714286" id="Shape" stroke="#EEEEEE"></path>
                                <path d="M6.42857143,34.3571429 L9.04523229,34.3571429 C9.04523229,34.3571429 14.320287,42.3023019 14.3773469,42.4025298 C14.4911796,42.2265856 19.6019432,34.3571429 19.6019432,34.3571429 L22.5,34.3571429 L15.4750323,44.379477 L15.4750323,45.2849153 L21.4019129,45.2849153 L21.4019129,47.5611112 L15.4750323,47.5611112 L15.4750323,53.0509728 L13.1728322,53.0509728 L13.1728322,47.5611112 L7.24589408,47.5611112 L7.24589408,45.2849153 L13.1727748,45.2849153 L13.1727748,44.286195 L6.42857143,34.3571429 Z" id="Path" stroke="#B0BDCA" stroke-width="0.5" fill="#EFF9FF"></path>
                                <path d="M70.7142857,3.48163714 L70.7142857,2.02610679 C70.7142857,0.984995835 71.5517958,0.14100865 72.5977217,0.14100865 L81.5952822,0.14100865 C82.6354752,0.14100865 83.4992936,0.978450927 83.5250734,2.02771432 L83.5714286,3.91441999" id="Path-2" stroke="#B0BDCA" stroke-width="0.5"></path>
                            </g>
                        </g>
                    </g>
                </g>
            </g>
        </g>
    </g>
</svg>