<?xml version="1.0" encoding="UTF-8"?>
<svg width="18px" height="18px" viewBox="0 0 18 18" version="1.1" xmlns="http://www.w3.org/2000/svg" xmlns:xlink="http://www.w3.org/1999/xlink">
    <!-- Generator: Sketch 41.1 (35376) - http://www.bohemiancoding.com/sketch -->
    <title>icon_jinggao</title>
    <desc>Created with Sketch.</desc>
    <defs></defs>
    <g id="icon" stroke="none" stroke-width="1" fill="none" fill-rule="evenodd">
        <g transform="translate(-324.000000, -216.000000)" id="Group-3">
            <g transform="translate(323.000000, 214.000000)">
                <path d="M11.4960925,4.24235362 C11.1904155,3.71573947 10.6183717,3.38722896 9.99929093,3.38722896 C9.38021013,3.38722896 8.80816638,3.71575773 8.50062618,4.24235362 L2.2235987,15.0916393 C1.92192216,15.6143444 1.92583127,16.2542311 2.23337145,16.7731001 C2.54100298,17.2938506 3.10913762,17.612771 3.72233652,17.612771 L16.2781634,17.612771 C16.8913805,17.612771 17.4575423,17.2938506 17.7650825,16.7731001 C18.0746686,16.2523496 18.0785777,15.6143444 17.7749466,15.0916393 L11.4960925,4.24235362 L11.4960925,4.24235362 Z M10.7829375,15.537441 C10.5929443,15.7046738 10.3695046,15.7872763 10.1148651,15.7872763 C9.8562252,15.7872763 9.63101355,15.7046738 9.43897447,15.5393956 C9.24702671,15.3760719 9.1490435,15.1454351 9.1490435,14.8515037 C9.1490435,14.5939232 9.24114481,14.372986 9.42724718,14.1924185 C9.60951351,14.0117597 9.83472514,13.921412 10.1031378,13.921412 C10.3695046,13.921412 10.5967621,14.0117414 10.7868466,14.1924185 C10.9748853,14.372986 11.0689594,14.59206 11.0689594,14.8515037 C11.0689594,15.1435719 10.9749035,15.3722542 10.7829375,15.537441 Z M11.0259228,8.62355915 L10.7516282,11.698139 C10.7222003,12.0632014 10.6595269,12.343798 10.5615437,12.5398558 C10.4636518,12.735804 10.3029951,12.8318327 10.0776008,12.8318327 C9.84848004,12.8318327 9.68977791,12.7377586 9.59963116,12.5493728 C9.51153028,12.359197 9.44688401,12.0709465 9.40963797,11.6865944 L9.20389877,8.70038939 C9.16672579,8.12007077 9.14708896,7.70123086 9.14708896,7.44755951 C9.14708896,7.10355876 9.23919027,6.83452502 9.42529263,6.64044006 C9.60746763,6.44644643 9.85240743,6.35032642 10.1521294,6.35032642 C10.5145249,6.35032642 10.7593733,6.47525321 10.8828753,6.72116114 C11.0062859,6.96904189 11.0689594,7.32458728 11.0689594,7.79154201 C11.0689594,8.06245722 11.053323,8.3410993 11.0259228,8.62355915 L11.0259228,8.62355915 Z" id="Shape" fill="#F5C973"></path>
                <rect id="Rectangle" x="0" y="0" width="20" height="20"></rect>
            </g>
        </g>
    </g>
</svg>