<?xml version="1.0" encoding="UTF-8" standalone="no"?>
<svg width="40px" height="40px" viewBox="0 0 40 40" version="1.1" xmlns="http://www.w3.org/2000/svg" xmlns:xlink="http://www.w3.org/1999/xlink">
    <!-- Generator: Sketch 40.2 (33826) - http://www.bohemiancoding.com/sketch -->
    <title>icon_xiangmufenxi</title>
    <desc>Created with Sketch.</desc>
    <defs>
        <linearGradient x1="50.1023077%" y1="0.76%" x2="50.1023077%" y2="100.76%" id="linearGradient-1">
            <stop stop-color="#FBDA61" offset="0%"></stop>
            <stop stop-color="#F76B1C" offset="100%"></stop>
        </linearGradient>
        <linearGradient x1="50.1023077%" y1="100.256667%" x2="50.1023077%" y2="0.256666667%" id="linearGradient-2">
            <stop stop-color="#F1B326" offset="0%"></stop>
            <stop stop-color="#FFA775" offset="100%"></stop>
        </linearGradient>
    </defs>
    <g id="icon" stroke="none" stroke-width="1" fill="none" fill-rule="evenodd">
        <g transform="translate(-589.000000, -90.000000)" id="Page-1_2_">
            <g transform="translate(595.000000, 96.000000)">
                <g id="设计模式库02_3_">
                    <g id="Group-24_3_">
                        <g id="Group">
                            <g id="Group-2">
                                <path d="M0.8,14.6 L5.8,11 L5.8,11 C6.1,10.8 6.8,10.6 7.3,10.6 L20.3,10.6 C20.8,10.6 21.5,10.8 21.8,11 L26.8,14.6" id="Rectangle" fill="url(#linearGradient-1)" opacity="0.7"></path>
                                <g id="Group-3" transform="translate(3.000000, 0.000000)">
                                    <path d="M3.8,0.6 L19.8,0.6 C20.4,0.6 20.8,1 20.8,1.6 L20.8,20.6 C20.8,21.2 20.4,21.6 19.8,21.6 L3.8,21.6 C3.2,21.6 2.8,21.2 2.8,20.6 L2.8,1.6 C2.8,1.1 3.3,0.6 3.8,0.6 L3.8,0.6 Z" id="Rectangle-2" fill="#FFCC67"></path>
                                    <path d="M1.8,2.6 L17.8,2.6 C18.4,2.6 18.8,3 18.8,3.6 L18.8,22.6 C18.8,23.2 18.4,23.6 17.8,23.6 L1.8,23.6 C1.2,23.6 0.8,23.2 0.8,22.6 L0.8,3.6 C0.8,3.1 1.3,2.6 1.8,2.6 L1.8,2.6 Z" id="Rectangle-2_1_" fill="#FFE2A8"></path>
                                    <path d="M4.3,6.6 L15.3,6.6 C15.6,6.6 15.8,6.8 15.8,7.1 L15.8,7.1 C15.8,7.4 15.6,7.6 15.3,7.6 L4.3,7.6 C4,7.6 3.8,7.4 3.8,7.1 L3.8,7.1 C3.8,6.9 4.1,6.6 4.3,6.6 L4.3,6.6 Z" id="Rectangle-3" fill="#FFFFFF"></path>
                                    <path d="M4.3,10.6 L11.3,10.6 C11.6,10.6 11.8,10.8 11.8,11.1 L11.8,11.1 C11.8,11.4 11.6,11.6 11.3,11.6 L4.3,11.6 C4,11.6 3.8,11.4 3.8,11.1 L3.8,11.1 C3.8,10.9 4.1,10.6 4.3,10.6 L4.3,10.6 Z" id="Rectangle-3_1_" fill="#FFFFFF"></path>
                                </g>
                                <path d="M10.8,14.6 L0.8,14.6 L0.8,24.6 C0.8,25.7 1.7,26.6 2.8,26.6 L24.8,26.6 C25.9,26.6 26.8,25.7 26.8,24.6 L26.8,14.6 L16.8,14.6 C16.8,16.3 15.5,17.6 13.8,17.6 C12.1,17.6 10.8,16.3 10.8,14.6 L10.8,14.6 Z" id="Combined-Shape" fill="url(#linearGradient-2)"></path>
                            </g>
                        </g>
                    </g>
                </g>
            </g>
        </g>
    </g>
</svg>