<?xml version="1.0" encoding="UTF-8" standalone="no"?>
<svg width="40px" height="40px" viewBox="0 0 40 40" version="1.1" xmlns="http://www.w3.org/2000/svg" xmlns:xlink="http://www.w3.org/1999/xlink">
    <!-- Generator: Sketch 40.2 (33826) - http://www.bohemiancoding.com/sketch -->
    <title>icon_gerendangan</title>
    <desc>Created with Sketch.</desc>
    <defs>
        <linearGradient x1="49.9079498%" y1="-103.07%" x2="49.9079498%" y2="133.7%" id="linearGradient-1">
            <stop stop-color="#04EACA" offset="0%"></stop>
            <stop stop-color="#00D6B9" offset="100%"></stop>
        </linearGradient>
    </defs>
    <g id="icon" stroke="none" stroke-width="1" fill="none" fill-rule="evenodd">
        <g transform="translate(-55.000000, -89.000000)">
            <path d="M87,118 L81,124 L81,120 C81,118.9 81.9,118 83,118 L87,118 L87,118 L87,118 Z" id="Path_4_" fill="#B7F9F1"></path>
            <g id="Group-10" transform="translate(63.000000, 95.000000)">
                <g id="Group-27">
                    <g id="Group-5">
                        <path d="M2.6,0 C1.2,0 0,1.2 0,2.6 L0,25.4 C0,26.8 1.2,28 2.6,28 L17.4,28 C17.6,28 17.8,27.9 18,27.8 L23.7,22 C23.8,21.8 23.9,21.6 23.9,21.4 L23.9,2.6 C23.9,1.2 22.7,0 21.3,0 L2.6,0 Z" id="iconfont-zhaopin" fill="url(#linearGradient-1)"></path>
                        <path d="M23,22 L17,28 L17,24 C17,22.9 17.9,22 19,22 L23,22 L23,22 L23,22 Z" id="Path_4_" fill="#B7F9F1"></path>
                        <path d="M14.1,15.9 C14,15.9 13.3,15.3 13.8,14.1 C14.9,13.1 15.8,11.4 15.8,9.8 C15.8,7.3 13.9,6 12,6 C9.9,6 8.2,7.3 8.2,9.8 C8.2,11.5 9,13.1 10.1,14.1 C10.5,15.1 9.8,15.8 9.6,15.9 C7.4,16.6 5,17.9 5,19.3 L5,19.8 C5,21.5 8.6,22 12,22 C15.3,22 19,21.6 19,19.8 L19,19.3 C18.8,18 16.3,16.6 14.1,15.9 L14.1,15.9 L14.1,15.9 Z" id="iconfont-zuzhiguanli" fill="#B7FAF1"></path>
                    </g>
                </g>
            </g>
        </g>
    </g>
</svg>