<?xml version="1.0" encoding="UTF-8" standalone="no"?>
<svg width="40px" height="40px" viewBox="0 0 40 40" version="1.1" xmlns="http://www.w3.org/2000/svg" xmlns:xlink="http://www.w3.org/1999/xlink">
    <!-- Generator: Sketch 40.2 (33826) - http://www.bohemiancoding.com/sketch -->
    <title>icon_zhaopingfenxi</title>
    <desc>Created with Sketch.</desc>
    <defs>
        <linearGradient x1="3.87192078%" y1="10.9849367%" x2="88.1876973%" y2="87.5109465%" id="linearGradient-1">
            <stop stop-color="#86B3F2" offset="0%"></stop>
            <stop stop-color="#98BBFF" offset="100%"></stop>
        </linearGradient>
    </defs>
    <g id="icon" stroke="none" stroke-width="1" fill="none" fill-rule="evenodd">
        <g transform="translate(-55.000000, -189.000000)" id="XMLID_284_">
            <g transform="translate(63.000000, 196.000000)">
                <circle id="path-2_1_" stroke="#7197EA" stroke-width="3" fill="url(#linearGradient-1)" cx="11.1" cy="11.5" r="10.9"></circle>
                <path d="M7.3,15.9 L12.2,15.9 C12.7,15.9 13,16.3 13,16.7 L13,16.7 C13,17.2 12.6,17.5 12.2,17.5 L7.3,17.5 C6.8,17.5 6.5,17.1 6.5,16.7 L6.5,16.7 C6.5,16.2 6.8,15.9 7.3,15.9 L7.3,15.9 Z" id="Rectangle-9_2_" fill="#D3E0FB"></path>
                <path d="M14.1213396,11.3535354 C13.9496224,10.4949495 13.4344709,9.63636364 12.7476022,9.12121212 C12.4900265,8.86363636 12.1465921,8.69191919 11.8031578,8.52020202 C12.1465921,8.17676768 12.3183093,7.66161616 12.3183093,7.14646465 C12.3183093,5.94444444 11.3738648,5 10.2577032,5 C9.14154161,5 8.19709717,5.94444444 8.19709717,7.14646465 C8.19709717,7.66161616 8.36881434,8.17676768 8.71224868,8.52020202 C8.36881434,8.69191919 8.11123858,8.86363636 7.76780424,9.12121212 C7.08093555,9.72222222 6.56578404,10.4949495 6.39406686,11.3535354 C6.30820828,11.6111111 6.05063252,13.5 10.2577032,13.5 C14.6364911,13.4141414 14.2071982,11.6111111 14.1213396,11.3535354 L14.1213396,11.3535354 Z" id="Path_7_" fill="#D3E0FB"></path>
                <path d="M17.6,18.4 L17.6,18.4 C18.2,17.8 19.2,17.8 19.8,18.4 L25.3,23.9 C25.9,24.5 25.9,25.5 25.3,26.1 L25.3,26.1 C24.7,26.7 23.7,26.7 23.1,26.1 L17.6,20.6 C17,20 17,19 17.6,18.4 L17.6,18.4 Z" id="Rectangle-7" fill="#7197EA"></path>
            </g>
        </g>
    </g>
</svg>