<?xml version="1.0" encoding="UTF-8" standalone="no"?>
<svg width="172px" height="73px" viewBox="0 0 172 73" version="1.1" xmlns="http://www.w3.org/2000/svg" xmlns:xlink="http://www.w3.org/1999/xlink">
    <!-- Generator: Sketch 40 (33762) - http://www.bohemiancoding.com/sketch -->
    <title>Group 2</title>
    <desc>Created with Sketch.</desc>
    <defs></defs>
    <g id="趣味魔方" stroke="none" stroke-width="1" fill="none" fill-rule="evenodd">
        <g id="10.0.6-个人报表消息" transform="translate(-517.000000, -266.000000)">
            <rect id="Rectangle-path" fill="#FAFBFE" x="0" y="-1.13686838e-13" width="900" height="600"></rect>
            <rect id="Rectangle-2" stroke="#EEEEEE" fill="#FFFFFF" x="320" y="66" width="570" height="524" rx="2"></rect>
            <g id="Group-2" transform="translate(518.000000, 267.000000)">
                <g id="Group">
                    <g id="fill" transform="translate(55.000000, 31.694915) scale(-1, 1) translate(-55.000000, -31.694915) ">
                        <path d="M22.3728814,41.0169492 C28.5440678,41.0169492 33.559322,46.0322034 33.559322,52.2033898 C33.559322,58.3745763 28.5440678,63.3898305 22.3728814,63.3898305 C16.2016949,63.3898305 11.1864407,58.3745763 11.1864407,52.2033898 C11.1864407,46.0322034 16.2016949,41.0169492 22.3728814,41.0169492 Z M85.7627119,41.0169492 C91.9338983,41.0169492 96.9491525,46.0322034 96.9491525,52.2033898 C96.9491525,58.3745763 91.9338983,63.3898305 85.7627119,63.3898305 C79.5915254,63.3898305 74.5762712,58.3745763 74.5762712,52.2033898 C74.5762712,46.0322034 79.5915254,41.0169492 85.7627119,41.0169492 Z" id="Combined-Shape" fill="#E9EDF0"></path>
                        <path d="M85.7627119,48.4745763 C87.8135593,48.4745763 89.4915254,50.1525424 89.4915254,52.2033898 C89.4915254,54.2542373 87.8135593,55.9322034 85.7627119,55.9322034 C83.7118644,55.9322034 82.0338983,54.2542373 82.0338983,52.2033898 C82.0338983,50.1525424 83.7118644,48.4745763 85.7627119,48.4745763 Z M22.3728814,48.4745763 C24.4237288,48.4745763 26.1016949,50.1525424 26.1016949,52.2033898 C26.1016949,54.2542373 24.4237288,55.9322034 22.3728814,55.9322034 C20.3220339,55.9322034 18.6440678,54.2542373 18.6440678,52.2033898 C18.6440678,50.1525424 20.3220339,48.4745763 22.3728814,48.4745763 Z" id="Combined-Shape" fill="#FFFFFF"></path>
                        <path d="M41.0167627,26.1016949 L65.2352203,26.1016949 L85.7436949,26.1016949 C82.0148814,26.1016949 80.1877627,22.3728814 80.1877627,22.3728814 L68.9640339,7.45762712 C66.1674237,3.20677966 61.5250508,0 55.9318305,0 L41.0167627,0 L29.8305085,0 C25.4677966,0 22.3728814,1.86440678 20.5084746,5.59322034 L11.820339,26.1016949 L41.0167627,26.1016949 L41.0167627,26.1016949 Z" id="Combined-Shape" fill="#FFFFFF"></path>
                        <path d="M106.252915,37.2881356 L108.005458,48.120339 C108.620712,50.4508475 107.073254,52.2033898 104.388508,52.2033898 L96.9308814,52.2033898 C96.9308814,46.0322034 91.9156271,41.0169492 85.7444407,41.0169492 C79.5732542,41.0169492 74.558,46.0322034 74.558,52.2033898 L33.5596949,52.2033898 C33.5596949,46.0322034 28.5444407,41.0169492 22.3732542,41.0169492 C16.2020678,41.0169492 11.1868136,46.0322034 11.1868136,52.2033898 L3.72918644,52.2033898 C1.67833898,52.2033898 0.000372881356,50.5254237 0.000372881356,48.4745763 L0.000372881356,37.2881356 L0.000372881356,29.8305085 C0.000372881356,27.779661 1.67833898,26.1016949 3.72918644,26.1016949 L11.8207119,26.1016949 L41.017322,26.1016949 L65.2359661,26.1016949 L85.7444407,26.1016949 L91.337661,26.1016949 C100.603763,26.1016949 105.152915,31.7508475 106.252915,37.2881356" id="Fill-1" fill="#EEF9FF"></path>
                    </g>
                    <path d="M106,70.8474576 L112.728814,70.8474576 L106,70.8474576 Z M33,70.8474576 L0,70.8474576 L33,70.8474576 Z M120.186441,70.8474576 L150.016949,70.8474576 L120.186441,70.8474576 L120.186441,70.8474576 L120.186441,70.8474576 L120.186441,70.8474576 Z M79.1694915,70.8474576 L97.8135593,70.8474576 L79.1694915,70.8474576 L79.1694915,70.8474576 L79.1694915,70.8474576 L79.1694915,70.8474576 Z M41.8813559,70.8474576 L67.9830508,70.8474576 L41.8813559,70.8474576 L41.8813559,70.8474576 L41.8813559,70.8474576 L41.8813559,70.8474576 Z M112.220339,33.559322 L114.084746,33.559322 L112.220339,33.559322 L112.220339,33.559322 L112.220339,33.559322 L112.220339,33.559322 Z M130.847627,18.6440678 L127.118814,26.1016949 L130.847627,18.6440678 L130.847627,18.6440678 L130.847627,18.6440678 L130.847627,18.6440678 Z M102.898305,5.07885097 L102.898305,26.1016949 L108.897795,47.4045635 M61.8813559,37.2881356 L65.6101695,37.2881356 L61.8813559,37.2881356 L61.8813559,37.2881356 L61.8813559,37.2881356 L61.8813559,37.2881356 Z M162.542542,37.2881356 L168.135763,37.2881356 L162.542542,37.2881356 L162.542542,37.2881356 L162.542542,37.2881356 L162.542542,37.2881356 Z M158.813729,52.2033898 L166.271356,52.2033898 C168.952373,52.2033898 170.496102,50.4545763 169.884576,48.1240678 L168.135763,37.2881356 C167.028305,31.7527119 162.484746,26.1016949 153.220508,26.1016949 L147.627288,26.1016949 C143.898475,26.1016949 142.069492,22.3728814 142.069492,22.3728814 L130.847627,7.45762712 C128.051017,3.20491525 123.40678,0 117.813559,0 L91.7118644,0 C87.3416949,0 84.2542373,1.86440678 82.3898305,5.59322034 L76.7966102,18.6440678 M95.440678,52.2033898 L128.98322,52.2033898 L95.440678,52.2033898 L95.440678,52.2033898 L95.440678,52.2033898 L95.440678,52.2033898 Z M136.440847,26.1016949 L65.6101695,26.1016949 C63.5518644,26.1016949 61.8813559,27.7722034 61.8813559,29.8305085 L61.8813559,48.4745763 C61.8813559,50.5328814 63.5518644,52.2033898 65.6101695,52.2033898 L66.5722034,52.2033898 M84.2542373,48.4745763 C82.1959322,48.4745763 80.5254237,50.1450847 80.5254237,52.2033898 C80.5254237,54.2616949 82.1959322,55.9322034 84.2542373,55.9322034 C86.3125424,55.9322034 87.9830508,54.2616949 87.9830508,52.2033898 C87.9830508,50.1450847 86.3125424,48.4745763 84.2542373,48.4745763 L84.2542373,48.4745763 L84.2542373,48.4745763 L84.2542373,48.4745763 L84.2542373,48.4745763 Z M95.440678,52.2033898 C95.440678,46.0266102 90.4310169,41.0169492 84.2542373,41.0169492 C78.0774576,41.0169492 73.0677966,46.0266102 73.0677966,52.2033898 C73.0677966,58.3801695 78.0774576,63.3898305 84.2542373,63.3898305 C90.4310169,63.3898305 95.440678,58.3801695 95.440678,52.2033898 L95.440678,52.2033898 L95.440678,52.2033898 L95.440678,52.2033898 L95.440678,52.2033898 Z M147.627288,48.4745763 C145.568983,48.4745763 143.898475,50.1450847 143.898475,52.2033898 C143.898475,54.2616949 145.568983,55.9322034 147.627288,55.9322034 C149.687458,55.9322034 151.356102,54.2616949 151.356102,52.2033898 C151.356102,50.1450847 149.687458,48.4745763 147.627288,48.4745763 L147.627288,48.4745763 L147.627288,48.4745763 L147.627288,48.4745763 L147.627288,48.4745763 Z M136.440847,52.2033898 C136.440847,46.0266102 141.450508,41.0169492 147.627288,41.0169492 C153.805932,41.0169492 158.813729,46.0266102 158.813729,52.2033898 C158.813729,58.3801695 153.805932,63.3898305 147.627288,63.3898305 C141.450508,63.3898305 136.440847,58.3801695 136.440847,52.2033898 Z" id="stroke" stroke="#D3D8DE" stroke-width="0.5" stroke-linecap="round" stroke-linejoin="round" transform="translate(85.008887, 35.423729) scale(-1, 1) translate(-85.008887, -35.423729) "></path>
                    <path d="M142.7,38.1214 C142.7,38.8214 142.1,39.4214 141.4,39.4214 C140.7,39.4214 140.1,38.8214 140.1,38.1214 C140.1,37.4214 140.7,36.8214 141.4,36.8214 C142.1,36.8214 142.7,37.4214 142.7,38.1214" id="Fill-101_3_" fill="#EEEEEE"></path>
                    <path d="M122.4,33.5 L121.6,32.7 L122.4,31.9 C122.5,31.8 122.5,31.6 122.4,31.5 C122.3,31.4 122.1,31.4 122,31.5 L121.2,32.3 L120.4,31.5 C120.3,31.4 120.1,31.4 120,31.5 C119.9,31.6 119.9,31.8 120,31.9 L120.8,32.7 L120,33.5 C119.9,33.6 119.9,33.8 120,33.9 C120.1,34 120.3,34 120.4,33.9 L121.2,33.1 L122,33.9 C122.1,34 122.3,34 122.4,33.9 C122.5,33.8 122.5,33.6 122.4,33.5" id="Fill-106_3_" fill="#B0BDC9"></path>
                    <path d="M155.4,11.5 L154.6,10.7 L155.4,9.9 C155.5,9.8 155.5,9.6 155.4,9.5 C155.3,9.4 155.1,9.4 155,9.5 L154.2,10.3 L153.4,9.5 C153.3,9.4 153.1,9.4 153,9.5 C152.9,9.6 152.9,9.8 153,9.9 L153.8,10.7 L153,11.5 C152.9,11.6 152.9,11.8 153,11.9 C153.1,12 153.3,12 153.4,11.9 L154.2,11.1 L155,11.9 C155.1,12 155.3,12 155.4,11.9 C155.5,11.8 155.5,11.6 155.4,11.5" id="Fill-106_3_" fill="#DDE3E8" transform="translate(154.200000, 10.700000) rotate(-315.000000) translate(-154.200000, -10.700000) "></path>
                    <path d="M159.4,53.9214 L157.2,53.9214 L157.2,51.7214 C157.2,51.4214 157,51.2214 156.7,51.2214 C156.4,51.2214 156.2,51.4214 156.2,51.7214 L156.2,53.9214 L154,53.9214 C153.7,53.9214 153.5,54.1214 153.5,54.4214 C153.5,54.7214 153.7,54.9214 154,54.9214 L156.2,54.9214 L156.2,57.1214 C156.2,57.4214 156.4,57.6214 156.7,57.6214 C157,57.6214 157.2,57.4214 157.2,57.1214 L157.2,54.9214 L159.4,54.9214 C159.7,54.9214 159.9,54.7214 159.9,54.4214 C159.9,54.1214 159.6,53.9214 159.4,53.9214" id="Fill-110_3_" fill="#EEEEEE"></path>
                    <path d="M146.6,29.4 C146.6,30.1 146,30.7 145.3,30.7 C144.6,30.7 144,30.1 144,29.4 C144,28.7 144.6,28.1 145.3,28.1 C146,28.1 146.6,28.7 146.6,29.4 L146.6,29.4 Z" id="Stroke-117_3_" stroke="#B0BDC9" stroke-width="0.5"></path>
                    <path d="M167.6,54.9 C167.6,55.3307692 167.230769,55.7 166.8,55.7 C166.369231,55.7 166,55.3307692 166,54.9 C166,54.4692308 166.369231,54.1 166.8,54.1 C167.230769,54.1 167.6,54.4692308 167.6,54.9 L167.6,54.9 Z" id="Stroke-117_3_" stroke="#B0BDC9" stroke-width="0.5"></path>
                    <path d="M134.5,47 C135.325,47 136,47.675 136,48.5 C136,49.325 135.325,50 134.5,50 L125.5,50 C124.675,50 124,49.325 124,48.5 C124,47.675 124.675,47 125.5,47 L127,47 C127,45.3425 128.3425,44 130,44 C131.6575,44 133,45.3425 133,47 L134.5,47 Z" id="Fill-3"></path>
                    <path d="M128,48 L135.5,48 C136.328,48 137,47.328 137,46.5 C137,45.672 136.328,45 135.5,45 L134,45 C134,43.34325 132.65675,42 131,42 C129.623,42 128.4755,42.933 128.12225,44.1975" id="Path" stroke="#D3D8DE" stroke-width="0.5" stroke-linecap="round" stroke-linejoin="round"></path>
                    <path d="M168.25,38.5 C169.7625,38.5 171,39.7375 171,41.25 C171,42.7625 169.7625,44 168.25,44 L151.75,44 C150.2375,44 149,42.7625 149,41.25 C149,39.7375 150.2375,38.5 151.75,38.5 L154.5,38.5 C154.5,35.46125 156.96125,33 160,33 C163.03875,33 165.5,35.46125 165.5,38.5 L168.25,38.5 Z" id="Fill-3" fill="#EEF9FF"></path>
                    <path d="M154,42 L167.75,42 C169.268,42 170.5,40.768 170.5,39.25 C170.5,37.732 169.268,36.5 167.75,36.5 L165,36.5 C165,33.462625 162.537375,31 159.5,31 C156.9755,31 154.87175,32.7105 154.224125,35.02875" id="Path" stroke="#D3D8DE" stroke-width="0.5" stroke-linecap="round" stroke-linejoin="round"></path>
                </g>
            </g>
        </g>
    </g>
</svg>