<?xml version="1.0" encoding="UTF-8" standalone="no"?>
<svg width="34px" height="34px" viewBox="0 0 34 34" version="1.1" xmlns="http://www.w3.org/2000/svg" xmlns:xlink="http://www.w3.org/1999/xlink">
    <!-- Generator: Sketch 40 (33762) - http://www.bohemiancoding.com/sketch -->
    <title>Group 9</title>
    <desc>Created with Sketch.</desc>
    <defs></defs>
    <g id="趣味魔方" stroke="none" stroke-width="1" fill="none" fill-rule="evenodd">
        <g id="10.0.1-个人报表瞬间" transform="translate(-515.000000, -442.000000)">
            <rect id="Rectangle-path" fill="#FAFBFE" x="0" y="0" width="900" height="600"></rect>
            <rect id="Rectangle-2" stroke="#EEEEEE" fill="#FFFFFF" x="320" y="66" width="570" height="524" rx="2"></rect>
            <g id="Group" transform="translate(510.000000, 456.000000)"></g>
            <polygon id="Shape" fill="#94CDFF" opacity="0.1" points="609 236 498 318.479247 540.413684 452 677.586316 452 720 318.479247"></polygon>
            <path d="M540.593366,451.803706 L608.861488,346" id="Shape" stroke="#64ACED" stroke-width="0.5" opacity="0.2"></path>
            <g id="Group-9" transform="translate(515.000000, 442.000000)">
                <circle id="Oval" fill="#4BEBCC" cx="17" cy="17" r="17"></circle>
                <g id="Group" opacity="0.6" transform="translate(10.000000, 7.000000)" fill="#FFFFFF">
                    <path d="M15.2,7 L10.8,7 C12.5,0.7 9.6,0.4 9.6,0.4 C8.4,0.4 8.6,1.4 8.5,1.5 C8.5,4.6 5.2,7 5.2,7 L5.2,15.7 C5.2,16.6 6.4,16.9 6.8,16.9 L13.4,16.9 C14,16.9 14.5,15.3 14.5,15.3 C16.1,9.7 16.1,8.1 16.1,8.1 C16.3,6.9 15.2,7 15.2,7 L15.2,7 L15.2,7 L15.2,7 Z" id="Shape"></path>
                    <path d="M3.5,7 L0.9,7 C0.4,7 0.3,7.5 0.3,7.5 L0.8,16.3 C0.8,16.9 1.4,16.9 1.4,16.9 L3.7,16.9 C4.2,16.9 4.2,16.5 4.2,16.5 L4.2,7.6 C4.2,7 3.5,7 3.5,7 L3.5,7 L3.5,7 L3.5,7 Z" id="Shape"></path>
                </g>
            </g>
        </g>
    </g>
</svg>