<?xml version="1.0" encoding="UTF-8" standalone="no"?>
<svg width="35px" height="35px" viewBox="0 0 35 35" version="1.1" xmlns="http://www.w3.org/2000/svg" xmlns:xlink="http://www.w3.org/1999/xlink">
    <!-- Generator: Sketch 40 (33762) - http://www.bohemiancoding.com/sketch -->
    <title>Group 10</title>
    <desc>Created with Sketch.</desc>
    <defs></defs>
    <g id="趣味魔方" stroke="none" stroke-width="1" fill="none" fill-rule="evenodd">
        <g id="10.0.1-个人报表瞬间" transform="translate(-472.000000, -297.000000)">
            <rect id="Rectangle-path" fill="#FAFBFE" x="0" y="0" width="900" height="600"></rect>
            <rect id="Rectangle-2" stroke="#EEEEEE" fill="#FFFFFF" x="320" y="66" width="570" height="524" rx="2"></rect>
            <polygon id="Shape" fill="#94CDFF" opacity="0.1" points="609 236 498 318.479247 540.413684 452 677.586316 452 720 318.479247"></polygon>
            <path d="M498.458975,318.822512 L609.028581,346.00814" id="Shape" stroke="#64ACED" stroke-width="0.5" opacity="0.2"></path>
            <g id="Group-10" transform="translate(472.000000, 297.000000)">
                <circle id="Oval" fill="#42E2AF" cx="17.4" cy="17.3" r="17"></circle>
                <path d="M17.4,9.5 C13,9.5 9.4,12.6 9.4,16.4 C9.4,18.7 10.7,20.7 12.6,21.9 L12.6,24.9 C12.6,24.9 14.5,23.6 15.5,23 C16.1,23.1 16.8,23.2 17.4,23.2 C21.8,23.2 25.4,20.1 25.4,16.3 C25.4,12.6 21.8,9.5 17.4,9.5 L17.4,9.5 Z M13.5,17.5 C12.9,17.5 12.4,17 12.4,16.4 C12.4,15.8 12.9,15.3 13.5,15.3 C14.1,15.3 14.6,15.8 14.6,16.4 C14.6,17 14.1,17.5 13.5,17.5 L13.5,17.5 Z M17.5,17.5 C16.9,17.5 16.4,17 16.4,16.4 C16.4,15.8 16.9,15.3 17.5,15.3 C18.1,15.3 18.6,15.8 18.6,16.4 C18.6,17 18.1,17.5 17.5,17.5 L17.5,17.5 Z M21.5,17.5 C20.9,17.5 20.4,17 20.4,16.4 C20.4,15.8 20.9,15.3 21.5,15.3 C22.1,15.3 22.6,15.8 22.6,16.4 C22.6,17 22.1,17.5 21.5,17.5 L21.5,17.5 Z" id="Shape" fill="#FFFFFF" opacity="0.6"></path>
            </g>
        </g>
    </g>
</svg>