<?xml version="1.0" encoding="utf-8"?>
<!-- Generator: Adobe Illustrator 20.0.0, SVG Export Plug-In . SVG Version: 6.00 Build 0)  -->
<svg version="1.1" id="Layer_1" xmlns="http://www.w3.org/2000/svg" xmlns:xlink="http://www.w3.org/1999/xlink" x="0px" y="0px"
	 viewBox="0 0 16 16" style="enable-background:new 0 0 16 16;" xml:space="preserve">
<style type="text/css">
	.st0{fill:#C6C6C6;}
</style>
<g>
	<path class="st0" d="M8,1c3.9,0,7,3.1,7,7s-3.1,7-7,7s-7-3.1-7-7S4.1,1,8,1 M8,0C3.6,0,0,3.6,0,8c0,4.4,3.6,8,8,8s8-3.6,8-8
		C16,3.6,12.4,0,8,0L8,0z"/>
</g>
<path class="st0" d="M11,11.1L9.2,5.5c0-0.1-0.1-0.2-0.1-0.2C9.3,5.2,9.5,5,9.6,4.9l1-1.4c0.1-0.2,0.2-0.4,0.1-0.6
	c-0.1-0.2-0.3-0.3-0.6-0.3H6c-0.3,0-0.5,0.1-0.6,0.3C5.3,3.1,5.3,3.4,5.4,3.5l1,1.4C6.5,5,6.7,5.2,6.9,5.2C6.8,5.3,6.8,5.4,6.8,5.5
	L5,11.1c-0.1,0.3,0,0.7,0.2,0.9l2.2,2.2c0.1,0.1,0.3,0.2,0.6,0.2c0.2,0,0.4-0.1,0.6-0.2l2.2-2.2C11,11.8,11.1,11.4,11,11.1z
	 M6.5,3.5h3L8.9,4.4c0,0-0.1,0.1-0.2,0.1H7.4c-0.1,0-0.2-0.1-0.2-0.1L6.5,3.5z M10.1,11.4L8,13.6l-2.1-2.1c0,0,0-0.1,0-0.1l1.8-5.6
	c0,0,0,0,0,0h0.7c0,0,0,0,0,0L10.1,11.4C10.2,11.4,10.2,11.4,10.1,11.4z"/>
</svg>
